<?xml version="1.0" encoding="utf-8"?>
<!-- Generator: Adobe Illustrator 25.2.1, SVG Export Plug-In . SVG Version: 6.00 Build 0)  -->
<svg version="1.1" id="Layer_1" xmlns="http://www.w3.org/2000/svg" xmlns:xlink="http://www.w3.org/1999/xlink" x="0px" y="0px" width="24px"
 height="24px" 	 
	 viewBox="0 0 288 288" style="enable-background:new 0 0 288 288;" xml:space="preserve">
<g>
	<path d="M217.8,88.5c-0.2,18.3-6,34.8-13.4,50.7c-13.6,29.6-32,56.2-51.3,82.3c-1.6,2.1-3.2,4.3-4.8,6.4c-3.1,4-5.7,4-8.8-0.4
		c-10.3-14.3-20.9-28.6-30.6-43.3c-14.4-21.8-27.2-44.6-34.7-69.9c-8.3-28-4.4-53.8,15.9-75.5c20.2-21.6,45.6-28.6,74-20.6
		c28.4,8.1,45.6,27.7,52.3,56.4c0.4,1.7,0.7,3.5,0.9,5.3C217.5,82.9,217.6,85.9,217.8,88.5z M182.9,90.6c1.4-21-15.3-39-37.6-40.5
		c-20-1.4-38.8,15.6-40.3,36.6c-1.5,21.3,15.4,40.1,37.3,41.5C163.3,129.5,181.5,112.7,182.9,90.6z"/>
	<path d="M143.2,273c-19.2-0.6-38.8-2.5-57.1-10.9c-4.9-2.3-9.7-5.3-13.7-8.9c-9.4-8.5-9.5-20.2-0.2-28.9
		c11.1-10.5,25.5-14.1,39.9-17c0.9-0.2,2.4,1.4,3.2,2.4c6.2,8.3,12.3,16.8,18.5,25.1c5.7,7.6,14.4,7.7,20.2,0.1
		c6.4-8.4,12.6-16.9,18.7-25.5c1.3-1.8,2.4-2.4,4.7-1.9c11.7,2.4,23.1,5.6,33,12.5c2.9,2,5.6,4.5,7.8,7.2c6.1,7.4,5.7,16.5-0.8,23.9
		c-7.3,8.4-17.3,12.4-27.5,15.5C175,271.2,159.5,272.6,143.2,273z"/>
</g>
</svg>
