<?xml version="1.0" encoding="utf-8"?>
<!-- Generator: Adobe Illustrator 25.2.1, SVG Export Plug-In . SVG Version: 6.00 Build 0)  -->
<svg version="1.1" id="Layer_1" xmlns="http://www.w3.org/2000/svg" xmlns:xlink="http://www.w3.org/1999/xlink" x="0px" y="0px" 
width="24px"
 height="24px" 	 viewBox="0 0 288 288" style="enable-background:new 0 0 288 288;" xml:space="preserve">
<style type="text/css">
	.st0{fill:#010101;}
	.st1{fill-rule:evenodd;clip-rule:evenodd;fill:#010101;}
</style>
<g>
	<path d="M-1188.6,38.3c29.5,0,59,0.1,88.5,0.1c2.5,0,5.1-0.1,7.6,0.1c5.3,0.4,8.7,3.9,9.2,9.2c0.1,1.5,0,3,0,4.5
		c0,72.2,0,144.5,0,216.7c0,10-3.1,13.1-13,13.1c-54.5,0-109,0-163.6,0c-10.2,0-13.1-2.7-13.1-12.9c-0.1-73.3-0.1-146.6-0.1-219.9
		c0-7.1,3.6-10.6,10.8-10.8c6.1-0.2,12.2-0.1,18.3-0.2c0,0-0.1-0.2-0.1-0.2c0,33.5-0.3,67,0.1,100.5c0.1,10.3,5.2,19,13.4,25.2
		c10.9,8.2,23,9.8,35.4,3.9c13.1-6.3,19.9-17.4,20-31.8c0.3-25.6,0.1-51.2,0.1-76.9c0-1.3-0.2-2.6-0.3-3.9c-3.2,0-6,0-9.3,0
		c0,2,0,3.8,0,5.5c0,17.3,0,34.6,0,51.8c0,8.6,0.2,17.3-0.3,25.9c-0.5,10.7-8.6,19.9-18.8,22.4c-16.5,4-31-8.6-31-27
		c0-26.1,0.1-52.1,0-78.2c0-5.8-0.1-11.6-0.2-17.4l-0.1,0.1c12.2,0,24.3,0,36.8,0c0,2.6,0,4.4,0,6.2c0,17.9,0,35.7,0,53.6
		c0,7.4,0.1,14.9-0.1,22.3c-0.2,5.9-4.8,10.3-10.6,10.7c-5.7,0.4-10.7-3.5-11.8-9.3c-0.3-1.9-0.4-3.8-0.5-5.8c0-11.9,0-23.8,0-35.7
		c0-7.4-0.1-14.9,0.1-22.3c0.1-3.2-1-4.4-4.1-4c-1.7,0.2-3.4,0.2-5.3,0.3c0,23-0.4,45.5,0.2,67.9c0.3,11.8,12.5,20.3,24.1,18.3
		c10.7-1.8,17.7-10.6,17.8-22.4c0.1-26.6,0.1-53.3,0.1-79.9L-1188.6,38.3z M-1245.5,220.7c45,0,89.7,0,134.5,0c0-4,0-7.7,0-12
		c-2.1,0-4,0-5.9,0c-39.6,0-79.2,0-118.8,0C-1246.9,208.7-1246.9,208.7-1245.5,220.7z M-1245,193.8c44.4,0,88.5,0,133.3,0
		c0-2.2,0-4.1,0-6c0-6,0-6-6-6c-40.7,0-81.4,0-122,0c-1.7,0-3.4,0-5.2,0C-1245,186.2-1245,189.9-1245,193.8z M-1245.6,247.8
		c2.3,0.1,4.3,0.3,6.4,0.3c31.2,0,62.5,0,93.7,0c1,0,2.3,0.3,3.1-0.1c1.1-0.7,2.4-1.8,2.8-3c0.5-1.3,0-3,0.2-4.4c0.5-3.9-1-5-5-5
		c-32.3,0.2-64.6,0.1-96.8,0.1c-1.4,0-2.8,0.2-4.3,0.3C-1245.6,240.1-1245.6,243.7-1245.6,247.8z M-1114,83.9
		c9,0,14.8-5.9,14.8-14.8c0-9-5.8-14.9-14.8-14.9c-8.9,0-14.7,5.8-14.8,14.8C-1128.8,78-1122.9,83.9-1114,83.9z M-1111.7,135.5
		c0-2.8-0.2-5.3,0-7.7c0.3-3.5-0.9-4.7-4.5-4.6c-12.1,0.2-24.1,0.1-36.2,0.1c-1.3,0-2.6,0.2-3.8,0.3c0,4.2,0,8,0,11.9
		C-1141.3,135.5-1126.8,135.5-1111.7,135.5z M-1112.5,152.9c-14.4,0-29,0-43.7,0c0,4.1,0,7.9,0,12.2c11.6,0,22.9,0,34.2,0
		c11.6,0,11.6-0.1,10-11.6C-1112,153.4-1112.2,153.3-1112.5,152.9z M-1111.7,94.7c-15.2,0-29.8,0-44.4,0c0,4.2,0,7.9,0,11.8
		c14.9,0,29.4,0,44.1,0c0.1-1,0.3-1.7,0.3-2.4C-1111.7,101.1-1111.7,98.1-1111.7,94.7z M-1155.3,82.7c3.2,0,5.9,0,8.7,0
		c0.1-2.7,0.2-5.1,0.3-7.4c3.2-0.4,6.2-0.5,9-1.2c4.8-1.1,7.3-4.6,7.3-9.3c0-4.4-3-8.8-7.5-9.2c-5.8-0.5-11.7-0.1-17.8-0.1
		C-1155.3,64.7-1155.3,73.5-1155.3,82.7z"/>
	<path d="M-1244,38.3c-0.2-16,2.3-18.6,18.5-18.6c8.6,0,17.3,0,25.9,0c7.6,0,10.4,2.9,10.6,10.6c0.1,2.7,0.2,5.3,0.3,8
		c0,0,0.1-0.2,0.1-0.2c-2.9,0-5.9,0-9,0c-0.2-3.3-0.4-6.1-0.6-9.5c-9.5,0-18.5,0-27.5,0c-10.7,0-9.4-0.7-9.5,9.7
		c0,0,0.1-0.1,0.1-0.1c-3,0-6,0-9.1,0L-1244,38.3z"/>
	<path d="M-1108.2,68.9c0.1,4.3-2.5,7.7-5.8,7.7c-3.2-0.1-5.6-3.2-5.6-7.4c-0.1-4.3,2.5-7.7,5.8-7.7
		C-1110.8,61.6-1108.3,64.8-1108.2,68.9z"/>
	<path d="M-1146.3,68.4c0-2.6,0-4.1,0-6.5c2.7,0.8,5,1.4,7.2,2.2c0.2,0.1,0.2,1.8,0,1.9C-1141.2,66.8-1143.4,67.5-1146.3,68.4z"/>
</g>
<g>
	<path d="M-873.1,55.6c4,0,7.1-3.2,7.2-7.2c0-4.1-3.3-7.3-7.4-7.2c-4,0.1-7.2,3.3-7.2,7.2C-880.5,52.5-877.2,55.7-873.1,55.6z"/>
	<path d="M-800.8,185.4c0-8.6,0-17,0-25.5c-10.2,0-20.4,0-30.7,0c0,8.7,0,17.1,0,25.5C-821.1,185.4-811,185.4-800.8,185.4z"/>
	<path d="M-800.7,213.8c0.2-2.1,0.1-4.3,0.1-6.5c0-4.4,0-8.9,0-13.4c-10.5,0-20.6,0-30.8,0c0,7.4,0,14.6,0,22.1
		c9.8,0,19.5,0,29.1-0.1C-801.8,216-800.8,214.6-800.7,213.8z"/>
	<path d="M-938.5,129.3c-3.5,0-3.5,0-3.5,3.6c0,5.4,0,10.8,0,16.2c0,0.8,0.1,1.5,0.1,2.2c34.1,0,68,0,101.9,0c0-7.4,0-14.5,0-22
		c-5.4,0-10.5,0-15.7,0C-883.3,129.3-910.9,129.3-938.5,129.3z"/>
	<path d="M-941.9,185.5c34,0,67.8,0,101.7,0c0-8.7,0-17.1,0-25.6c-34,0-67.9,0-101.7,0C-941.9,168.5-941.9,177-941.9,185.5z"/>
	<path d="M-800.6,132.1c0-2.1-0.7-2.8-2.8-2.8c-7.2,0.1-14.4,0-21.5,0c-2.1,0-4.3,0-6.5,0c0,7.5,0,14.7,0,22c10.3,0,20.5,0,30.8,0
		C-800.6,144.8-800.7,138.5-800.6,132.1z"/>
	<path d="M-787.2,14.6h-168.5c-11.4,0-20.7,9.3-20.7,20.7v229c0,11.4,9.3,20.7,20.7,20.7h168.5c11.4,0,20.7-9.3,20.7-20.7v-229
		C-766.6,23.9-775.8,14.6-787.2,14.6z M-804.4,37.5c0-2.6,1.4-4.3,4.1-4.4c3.1-0.2,6.3-0.2,9.4,0c2.5,0.1,4.2,1.9,4.2,4.1
		c0,2.3-1.8,4-4.4,4.2c-0.8,0.1-1.6,0-2.4,0c-0.8,0-1.6,0.1-2.6,0.1c0,1,0,1.7,0,2.5c0.4,0.1,0.7,0.3,1,0.3c1.4,0.1,2.9,0,4.3,0.2
		c2.2,0.4,3.5,1.9,3.4,4.2c-0.1,2.1-1.4,3.5-3.5,3.8c-1.7,0.2-3.4,0.2-5.2,0.3c0,0.9,0,1.7,0,2.8c1.6,0,3.2-0.1,4.8,0
		c2.8,0.1,4.7,1.9,4.6,4.2c0,2.3-1.8,3.9-4.5,4c-3,0.1-5.9,0.1-8.9,0c-2.8-0.1-4.3-1.7-4.3-4.5C-804.4,52-804.4,44.8-804.4,37.5z
		 M-831.5,37c4.6-4.2,11.4-5.2,17.1-2.5c0.6,0.3,1.3,0.7,1.9,1.1c1.9,1.4,2.4,3.6,1.3,5.4c-1.1,1.9-3.1,2.5-5.4,1.6
		c-1.5-0.6-3-1.3-4.6-1.3c-4.2-0.1-7.2,3.2-7.1,7.4c0.1,4.1,3.5,7.3,7.7,6.8c1.3-0.1,2.6-1,3.7-1.8c2.1-1.5,4.3-1.6,5.9,0
		c1.7,1.7,1.6,4-0.2,6c-2.7,2.9-6.1,4-9.5,4.2c-6.7,0-12.6-4.1-14.8-10C-837.9,48-836.3,41.3-831.5,37z M-847.2,32.9
		c2.5,0,4.1,2,4.2,5.2c0,3.4,0,6.8,0,10.2s0,6.8,0,10.2c0,3.3-1.6,5.3-4.1,5.3c-2.5,0-4.2-2-4.2-5.2c0-6.8,0-13.7,0-20.5
		C-851.3,35-849.7,33-847.2,32.9z M-873,32.9c8.5,0.1,15.3,7.1,15.3,15.6c0,8.5-7,15.5-15.4,15.5c-8.6,0-15.4-7.1-15.4-15.8
		C-888.6,39.8-881.5,32.8-873,32.9z M-911.3,33.8c1.6-1.1,3.3-1.2,4.7,0.1c0.8,0.7,1.4,1.8,1.8,2.9c1.4,3.6,2.6,7.2,4,11.4
		c1.4-4.1,2.6-7.7,3.8-11.4c1.1-3.1,3-4.3,5.3-3.5c2.5,0.8,3.4,3,2.4,6.1c-2.2,6.8-4.6,13.6-6.8,20.4c-0.8,2.4-2.1,4.1-4.7,4.1
		c-2.6,0-3.9-1.6-4.8-4c-2.3-7-4.8-13.9-7.2-20.8C-913.3,37-913.2,35.1-911.3,33.8z M-940.6,37.8c0-2.2,0.7-3.9,3-4.6
		c2.3-0.7,3.7,0.5,5,2.3c2.4,3.5,4.9,7.1,7.9,10.6c0-2.6,0-5.2,0-7.8c0-3.3,1.5-5.3,4-5.3c2.5,0,4.1,1.9,4.1,5.2
		c0.1,6.6,0.1,13.1,0.2,19.7c0,2.5-0.4,4.8-3.1,5.6c-2.7,0.8-4.3-0.8-5.7-2.9c-2.1-3.2-4.3-6.3-6.5-9.4c-0.2,0.1-0.4,0.2-0.5,0.3
		c0,2.6,0,5.2,0,7.8c-0.1,2.8-1.7,4.8-4,4.8c-2.3,0.1-4.1-1.8-4.1-4.7C-940.6,52.1-940.6,44.9-940.6,37.8z M-956,59.2
		c-0.1-3.6,0-7.2,0-10.8c0-3.6,0-7.2,0-10.8c0-2.8,1.7-4.7,4.1-4.7c2.4,0,4,1.8,4.1,4.7c0,7.2,0,14.4,0,21.6c0,2.9-1.7,4.7-4,4.8
		C-954.3,64-956,62.1-956,59.2z M-884.4,224.3c-0.6-0.1-1.3-0.2-1.8-0.4c-1.9-0.8-2.7-2.3-2.4-4.3c0.3-1.9,1.4-3.1,3.3-3.3
		c1-0.1,2-0.1,3-0.1c13,0,26.1,0,39.1,0c1,0,1.9,0,3.2,0c0-7.6,0-14.8,0-22.2c-34,0-67.8,0-102,0c0,5.7,0,11.3,0,17
		c0,5.2-0.9,5.2,5.3,5.2c11.2,0,22.3,0,33.5,0c0.9,0,1.8,0,2.7,0.1c2.3,0.2,3.6,1.5,3.8,3.8c0.2,2.1-1.4,4.2-3.6,4.3
		c-13.8,0.1-27.7,0.2-41.5-0.1c-4.8-0.1-8.2-4.5-8.2-9.4c0-28,0-55.9,0-83.9c0-5.5,3.7-9.3,9.2-9.6c0.7,0,1.4,0,2.2,0
		c45,0,89.9,0,134.9,0c1.6,0,3.3,0,4.8,0.5c4.1,1.2,6.6,4.8,6.6,9.4c0,14.6,0,29.1,0,43.7c0,12.8,0,25.5,0,38.3
		c0,7.7-3.6,11.2-11.2,11.2c-26.2,0-52.3,0-78.5,0C-882.9,224.3-883.7,224.3-884.4,224.3z M-796.5,264.2c-3.7-0.1-6.4-2-8.6-4.9
		c-1.1-1.5-2.2-3.1-3.3-4.6c-1.4-1.8-2.8-1.8-4.2,0c-1.3,1.6-2.4,3.4-3.7,5c-5,6.1-12.3,6-17.2-0.1c-1.2-1.5-2.1-3.1-3.3-4.6
		c-1.7-2.1-2.8-2.2-4.5-0.1c-1.2,1.5-2.3,3.2-3.5,4.8c-1.9,2.4-4.3,4.1-7.4,4.5c-2.6,0.4-4.7-1-5.1-3.3c-0.4-2.4,0.8-4,3.5-4.8
		c1.1-0.4,2.2-1.1,3-2c1.2-1.3,2.1-2.9,3.2-4.3c2.2-2.7,4.9-4.5,8.6-4.4c3.4-0.1,6,1.4,8.1,3.9c1.3,1.5,2.3,3.2,3.5,4.8
		c2,2.6,3.3,2.6,5.2,0c1-1.3,1.8-2.7,2.8-4c4.9-6.5,12.5-6.6,17.6-0.2c0.9,1.1,1.5,2.5,2.5,3.5c1.2,1.1,2.5,2.2,4,2.8
		c2.1,0.9,3.3,2.2,3.1,4.5C-792.3,262.7-794.2,264.3-796.5,264.2z M-791.1,106.7c-6.7,0.1-13.5,0.1-20.2,0c-2.6,0-4.4-1.9-4.4-4.2
		c0.1-2.3,1.8-3.9,4.5-3.9c3.3,0,6.7,0,10,0s6.7,0,10,0c2.7,0,4.5,1.7,4.5,4C-786.7,104.9-788.5,106.6-791.1,106.7z M-792.8,88.8
		c-7.4,0-14.7,0-22.1,0c-7.7,0-15.5,0-23.2,0c-1.1,0-2.5,0-3.1-0.6c-1-1-2.3-2.7-2.1-3.9c0.2-1.3,1.8-2.6,3-3.5
		c0.7-0.5,1.9-0.3,2.9-0.3c14.8,0,29.7,0,44.5,0c4.2,0,6.3,1.4,6.3,4.2C-786.8,87.5-788.8,88.8-792.8,88.8z"/>
</g>
<g>
	<path class="st0" d="M-473.4,75.5c0,1.2-0.6,1.8,0,2.4V75.5z"/>
	<path class="st0" d="M-451.4,46.2h-14.3v29.2c0,11.9-10.1,21.5-22.1,21.5s-22.1-9.5-22.1-21.5V46.2h-86.4v29.2
		c0,11.9-10.1,21.5-22.1,21.5c-11.9,0-22.1-9.5-22.1-21.5V46.2h-14.3c-13.1,0-23.2,10.7-23.2,23.2v181.2c0,12.5,10.1,22.6,23.2,22.6
		h203.2c12.5,0,23.2-10.1,23.2-22.6V69.5C-428.2,57-438.9,46.2-451.4,46.2z M-573.5,142.8c0-3.6,3-6.6,6.6-6.6h28.6
		c3.6,0,6.6,3,6.6,6.6v18.5c0,3.6-3,6.6-6.6,6.6h-28.6c-3.6,0-6.6-3-6.6-6.6V142.8z M-593.2,216.7c0,3.6-3,6.6-6.6,6.6h-28.6
		c-3.6,0-7.2-3-6.6-6.6v-18.5c0-3.6,3-6.6,6.6-6.6h28.6c3.6,0,6.6,3,6.6,6.6V216.7z M-593.2,161.3c0,3.6-3,6.6-6.6,6.6h-28.6
		c-3.6,0-7.2-3-6.6-6.6v-18.5c0-3.6,3-6.6,6.6-6.6h28.6c3.6,0,6.6,3,6.6,6.6V161.3z M-531.8,216.7c0,3.6-3,6.6-6.6,6.6h-28.6
		c-3.6,0-6.6-3-6.6-6.6v-18.5c0-3.6,3-6.6,6.6-6.6h28.6c3.6,0,6.6,3,6.6,6.6V216.7z M-469.8,216.7c0,3.6-3,6.6-6.6,6.6H-505
		c-4.2,0-7.2-3-6.6-6.6v-18.5c0-3.6,3-6.6,6.6-6.6h28.6c3.6,0,6.6,3,6.6,6.6V216.7z M-469.8,161.3c0,3.6-3,6.6-6.6,6.6H-505
		c-4.2,0-7.2-3-6.6-6.6v-18.5c0-3.6,3-6.6,6.6-6.6h28.6c3.6,0,6.6,3,6.6,6.6V161.3z"/>
	<path class="st0" d="M-617.7,88.2c7.7,0,13.7-6,13.7-13.7V34.5c0-7.2-6-13.7-13.7-13.7c-7.7,0-13.7,6-13.7,13.7v39.9
		C-631.4,82.2-625.4,88.2-617.7,88.2z"/>
	<path class="st0" d="M-487.8,88.2c7.7,0,13.7-6,13.7-13.7V34.5c0-7.2-6-13.7-13.7-13.7s-13.7,6-13.7,13.7v39.9
		C-500.9,82.2-494.9,88.2-487.8,88.2z"/>
</g>
<g>
	<path class="st1" d="M-331.3,116.2l125.7-88.7l126.3,89.2h-252.1V116.2L-331.3,116.2z M-327.8,246h10.4v-13.3h2.9v-6.4h7.5v-77.6
		h-16.8v-18.5h235.8v18.5h-16.8v77.6h8.1v6.4h2.9V246h10.4v14.5h-244.5V246L-327.8,246L-327.8,246z M-267.6,232.7h9.3v-6.4h8.1
		v-77.6h-26.1v77.6h8.1v6.4H-267.6L-267.6,232.7L-267.6,232.7z M-210.2,232.7h9.3v-6.4h8.1v-77.6h-26.1v77.6h8.1L-210.2,232.7
		L-210.2,232.7L-210.2,232.7L-210.2,232.7z M-153.4,232.7h9.3v-6.4h8.1v-77.6h-26.1v77.6h8.1L-153.4,232.7L-153.4,232.7
		L-153.4,232.7L-153.4,232.7z M-247.9,93.6l42.3-32.5l42.9,32.5H-247.9L-247.9,93.6L-247.9,93.6z"/>
</g>
<g>
	<path d="M37.3,103.4c0-3,0-5.7,0-8.5c0-2.1-0.8-3.1-3.1-3.1c-5.2,0.1-10.3,0-15.9,0c0-2.1-0.3-4.1,0.1-6c0.2-0.8,1.5-1.6,2.5-2.1
		c16.2-7.2,32.4-14.4,48.6-21.6c23.3-10.3,46.6-20.6,69.9-31c1.8-0.8,3.2-0.8,5.1,0c14.5,6.5,29.1,13,43.7,19.4
		c1.7,0.7,2.2,1.4,1.7,3.4c-3.3,11.5-1.6,22.5,4,32.9c2.9,5.4,5.9,10.7,9,16.3C147.5,103.4,92.6,103.4,37.3,103.4z M154.2,69.9
		c-0.2,0.1-0.4,0.1-0.6,0.2c-1.4-2-3-3.8-4-5.9c-1.7-3.3-4.1-3.9-7.5-3c0,5.9,0,11.9,0,18.1c1.7,0,3.3,0,5.2,0c0-3.1,0-6.1,0-9.1
		c2,2,3.5,4.1,4.9,6.2c2.2,3.3,3.3,3.6,7.2,2.6c0-6,0-12,0-17.9c-1.8,0-3.4,0-5.2,0C154.2,64.1,154.2,67,154.2,69.9z M115.9,69.4
		c2.2-1.3,2.9-3.2,2.2-5.5c-0.6-1.9-2.2-2.9-4.1-3c-3.8-0.1-7.7,0-11.7,0c0,6.1,0,12.1,0,18.1c3.9,0,7.7,0.1,11.5,0
		c3-0.1,4.9-1.5,5.4-3.8C119.7,72.8,118.8,71.1,115.9,69.4z M172.2,72c1.2,2.3,1.8,5.1,3.6,6.4c1.7,1.2,4.5,0.9,6.8,1.3
		c0.1-0.3,0.1-0.5,0.2-0.8c-2.2-3.7-4.4-7.3-6.7-11.1c2.1-2.2,4.1-4.4,6-6.4c-6.4-2.8-9.3,1.8-12.5,5.9c-0.2-0.1-0.4-0.2-0.6-0.4
		c0-2,0-4,0-5.9c-2.1,0-3.8,0-5.4,0c0,6.2,0,12.1,0,18.1c1.9,0,3.6,0,5.2,0C169.6,74.1,169.6,74.1,172.2,72z M125.7,79.3
		c0.5-2,1.3-3.5,3.8-3.1c1.9,0.3,4.1-0.6,4.5,2.4c0,0.3,0.8,0.6,1.2,0.7c1.5,0.1,3,0,4.9,0c-2.2-5.8-4.3-11.2-6.3-16.7
		c-0.6-1.6-1.5-2-2.9-1.7c-1.7,0.3-3.8-1.1-4.8,1.7c-1.7,5-3.7,10-5.6,15c-0.2,0.5-0.3,1.1-0.4,1.7
		C122.2,79.3,123.9,79.3,125.7,79.3z"/>
	<path d="M18.3,261.1c0-4.5-0.1-8.7,0.1-12.9c0-0.8,0.6-1.8,1.3-2.2c4.9-3.5,9.9-6.9,14.9-10.2c0.9-0.6,2.1-0.9,3.1-0.9
		c69.5,0,139,0,208.5,0c1,0,2.2,0.3,3.1,0.9c4.9,3.2,9.7,6.6,14.5,9.9c0.6,0.4,1.5,1.2,1.5,1.9c0.1,4.5,0.1,8.9,0.1,13.5
		C182.9,261.1,100.7,261.1,18.3,261.1z"/>
	<path d="M230.7,146c-3.3-5.9-6.5-11.7-9.7-17.5c-7.8-14-15.6-28-23.4-42c-11.2-20-5.8-42.4,13.1-54.1c23.2-14.4,54.9,0.5,58.6,27.5
		c1.3,9.3-0.6,17.8-5,25.8c-10.9,19.7-21.8,39.3-32.8,58.9C231.4,145.1,231.1,145.5,230.7,146z M210.3,65.9
		c0,11.3,9.1,20.5,20.4,20.7c11.2,0.2,20.6-9.3,20.6-20.7c0-11.3-9.2-20.5-20.6-20.5C219.4,45.4,210.3,54.6,210.3,65.9z"/>
	<path d="M188.3,121c0.6,0,1.3,0,2,0c3.6,0,7.2,0,11.1,0c3.5,32.1,4.5,64,0,96.1c-4.5,0-8.8,0-13.2,0
		C183.9,206.5,183.9,134.9,188.3,121z"/>
	<path d="M63.3,217.2c-4.7,0-9,0-13.6,0c-4.5-32-3.5-63.9,0-96c4.5,0,8.9,0,13.5,0C66.8,153.1,67.8,185.1,63.3,217.2z"/>
	<path d="M99.3,121c3.5,32.3,4.4,64.1,0.1,96.1c-4.6,0-9,0-13.8,0c-0.7-7.1-1.8-14.2-2-21.3c-0.3-16.6-0.3-33.2,0-49.9
		c0.1-7.8,1.2-15.6,2-23.4c0.1-0.6,1-1.4,1.5-1.4C91.2,121,95.1,121,99.3,121z"/>
	<path d="M222.8,139.4c2.6,4.6,5.2,9.3,8,14.2c2.8-4.9,5.4-9.6,8-14.2c2.3,25.9,2.5,51.7-1.2,77.8c-2.2,0-4.4,0-6.6,0
		c-2.2,0-4.5,0-6.9,0C220.3,191.3,220.5,165.5,222.8,139.4z"/>
	<path d="M170.4,161.3c-19,0-37.9,0-56.7,0c-1.2-11.4,11.8-23.4,25.5-24.3C157.5,135.8,170.4,148.8,170.4,161.3z"/>
	<path d="M139.7,165.8c0,21.7,0,43.3,0,65.2c-8.7,0-17.4,0-26.3,0c0-21.6,0-43.3,0-65.2C122.1,165.8,130.7,165.8,139.7,165.8z
		 M116.6,169.4c0,19.6,0,38.7,0,58c5.7,0,11.2-0.1,16.7,0.1c2.5,0.1,3.4-0.5,3.3-3.2c-0.2-12.8-0.1-25.7-0.1-38.5
		c0-4.7,0.1-9.5-0.1-14.2c0-0.7-0.9-2.1-1.4-2.1C129.1,169.3,123,169.4,116.6,169.4z"/>
	<path d="M144.2,165.7c8.7,0,17.3,0,26.1,0c0,21.7,0,43.4,0,65.2c-8.6,0-17.3,0-26.1,0C144.2,209.2,144.2,187.5,144.2,165.7z
		 M147.3,169.5c0,19.4,0,38.6,0,57.7c6.7,0,13.3,0,19.9,0c0-19.3,0-38.4,0-57.7C160.6,169.5,154.1,169.5,147.3,169.5z"/>
	<path d="M185.1,231c0-3.3,0-6.5,0-9.9c6.4,0,12.8,0,19.3,0c0,3.2,0,6.4,0,9.9C198,231,191.7,231,185.1,231z"/>
	<path d="M66.2,221.1c0,3.3,0,6.5,0,9.9c-6.5,0-12.8,0-19.3,0c0-3.3,0-6.5,0-9.9C53.3,221.1,59.7,221.1,66.2,221.1z"/>
	<path d="M82.9,231c0-3.3,0-6.6,0-9.9c6.5,0,12.8,0,19.3,0c0,3.3,0,6.5,0,9.9C95.8,231,89.4,231,82.9,231z"/>
	<path d="M240.3,231c-6.5,0-12.7,0-19.1,0c0-3.3,0-6.6,0-10c6.3,0,12.6,0,19.1,0C240.3,224.4,240.3,227.6,240.3,231z"/>
	<path d="M204.4,107.5c0,3.4,0,6.5,0,9.7c-6.4,0-12.8,0-19.3,0c0-3.1,0-6.4,0-9.7C191.6,107.5,197.9,107.5,204.4,107.5z"/>
	<path d="M66.2,107.6c0,3.3,0,6.4,0,9.7c-6.5,0-12.8,0-19.3,0c0-3.2,0-6.3,0-9.7C53.3,107.6,59.7,107.6,66.2,107.6z"/>
	<path d="M102.1,117.3c-6.4,0-12.7,0-19.3,0c0-3-0.1-5.9,0.1-8.7c0-0.4,1-1.2,1.5-1.2c5.8-0.1,11.7-0.1,17.8-0.1
		C102.1,110.7,102.1,113.9,102.1,117.3z"/>
	<path d="M108.1,71.6c1.4,0.1,2.6,0,3.8,0.3c0.6,0.2,1.4,1,1.5,1.6c0.1,0.4-0.8,1.3-1.3,1.5c-1.2,0.3-2.5,0.3-4,0.5
		C108.1,74,108.1,72.9,108.1,71.6z"/>
	<path d="M107.8,64.2c1.8,0.5,3.2,0.8,4.6,1.3c0.2,0.1,0.3,1.5,0.1,1.6c-1.3,0.6-2.7,1-4.5,1.5C107.9,67,107.9,66,107.8,64.2z"/>
	<path d="M127.9,72.3c0.7-2.3,1.2-4.1,2-6.4c0.7,2.3,1.3,4,2,6.1C130.6,72.1,129.5,72.2,127.9,72.3z"/>
</g>
</svg>
