<?xml version="1.0" encoding="utf-8"?>
<!-- Generator: Adobe Illustrator 25.2.1, SVG Export Plug-In . SVG Version: 6.00 Build 0)  -->
<svg version="1.1" id="Layer_1" xmlns="http://www.w3.org/2000/svg" xmlns:xlink="http://www.w3.org/1999/xlink" x="0px" y="0px"
	width="24px"
 height="24px" 	   viewBox="0 0 288 288" style="enable-background:new 0 0 288 288;" xml:space="preserve">
<g>
	<path d="M142.6,50.5c4,0,7.1-3.2,7.2-7.2c0-4.1-3.3-7.3-7.4-7.2c-4,0.1-7.2,3.3-7.2,7.2C135.1,47.3,138.5,50.6,142.6,50.5z"/>
	<path d="M214.9,180.3c0-8.6,0-17,0-25.5c-10.2,0-20.4,0-30.7,0c0,8.7,0,17.1,0,25.5C194.6,180.3,204.7,180.3,214.9,180.3z"/>
	<path d="M215,208.7c0.2-2.1,0.1-4.3,0.1-6.5c0-4.4,0-8.9,0-13.4c-10.5,0-20.6,0-30.8,0c0,7.4,0,14.6,0,22.1c9.8,0,19.5,0,29.1-0.1
		C213.9,210.9,214.9,209.5,215,208.7z"/>
	<path d="M77.1,124.2c-3.5,0-3.5,0-3.5,3.6c0,5.4,0,10.8,0,16.2c0,0.8,0.1,1.5,0.1,2.2c34.1,0,68,0,101.9,0c0-7.4,0-14.5,0-22
		c-5.4,0-10.5,0-15.7,0C132.3,124.2,104.7,124.2,77.1,124.2z"/>
	<path d="M73.8,180.4c34,0,67.8,0,101.7,0c0-8.7,0-17.1,0-25.6c-34,0-67.9,0-101.7,0C73.8,163.4,73.8,171.9,73.8,180.4z"/>
	<path d="M215.1,127c0-2.1-0.7-2.8-2.8-2.8c-7.2,0.1-14.4,0-21.5,0c-2.1,0-4.3,0-6.5,0c0,7.5,0,14.7,0,22c10.3,0,20.5,0,30.8,0
		C215,139.7,215,133.3,215.1,127z"/>
	<path d="M228.4,9.5H59.9c-11.4,0-20.7,9.3-20.7,20.7v229c0,11.4,9.3,20.7,20.7,20.7h168.5c11.4,0,20.7-9.3,20.7-20.7v-229
		C249.1,18.8,239.9,9.5,228.4,9.5z M211.3,32.4c0-2.6,1.4-4.3,4.1-4.4c3.1-0.2,6.3-0.2,9.4,0c2.5,0.1,4.2,1.9,4.2,4.1
		c0,2.3-1.8,4-4.4,4.2c-0.8,0.1-1.6,0-2.4,0c-0.8,0-1.6,0.1-2.6,0.1c0,1,0,1.7,0,2.5c0.4,0.1,0.7,0.3,1,0.3c1.4,0.1,2.9,0,4.3,0.2
		c2.2,0.4,3.5,1.9,3.4,4.2c-0.1,2.1-1.4,3.5-3.5,3.8c-1.7,0.2-3.4,0.2-5.2,0.3c0,0.9,0,1.7,0,2.8c1.6,0,3.2-0.1,4.8,0
		c2.8,0.1,4.7,1.9,4.6,4.2c0,2.3-1.8,3.9-4.5,4c-3,0.1-5.9,0.1-8.9,0c-2.8-0.1-4.3-1.7-4.3-4.5C211.2,46.9,211.2,39.7,211.3,32.4z
		 M184.1,31.9c4.6-4.2,11.4-5.2,17.1-2.5c0.6,0.3,1.3,0.7,1.9,1.1c1.9,1.4,2.4,3.6,1.3,5.4c-1.1,1.9-3.1,2.5-5.4,1.6
		c-1.5-0.6-3-1.3-4.6-1.3c-4.2-0.1-7.2,3.2-7.1,7.4c0.1,4.1,3.5,7.3,7.7,6.8c1.3-0.1,2.6-1,3.7-1.8c2.1-1.5,4.3-1.6,5.9,0
		c1.7,1.7,1.6,4-0.2,6c-2.7,2.9-6.1,4-9.5,4.2c-6.7,0-12.6-4.1-14.8-10C177.8,42.9,179.4,36.2,184.1,31.9z M168.5,27.8
		c2.5,0,4.1,2,4.2,5.2c0,3.4,0,6.8,0,10.2s0,6.8,0,10.2c0,3.3-1.6,5.3-4.1,5.3c-2.5,0-4.2-2-4.2-5.2c0-6.8,0-13.7,0-20.5
		C164.4,29.9,166,27.8,168.5,27.8z M142.6,27.8c8.5,0.1,15.3,7.1,15.3,15.6c0,8.5-7,15.5-15.4,15.5c-8.6,0-15.4-7.1-15.4-15.8
		C127.1,34.7,134.2,27.7,142.6,27.8z M104.3,28.6c1.6-1.1,3.3-1.2,4.7,0.1c0.8,0.7,1.4,1.8,1.8,2.9c1.4,3.6,2.6,7.2,4,11.4
		c1.4-4.1,2.6-7.7,3.8-11.4c1.1-3.1,3-4.3,5.3-3.5c2.5,0.8,3.4,3,2.4,6.1c-2.2,6.8-4.6,13.6-6.8,20.4c-0.8,2.4-2.1,4.1-4.7,4.1
		c-2.6,0-3.9-1.6-4.8-4c-2.3-7-4.8-13.9-7.2-20.8C102.4,31.9,102.4,30,104.3,28.6z M75.1,32.6c0-2.2,0.7-3.9,3-4.6
		c2.3-0.7,3.7,0.5,5,2.3c2.4,3.5,4.9,7.1,7.9,10.6c0-2.6,0-5.2,0-7.8c0-3.3,1.5-5.3,4-5.3c2.5,0,4.1,1.9,4.1,5.2
		c0.1,6.6,0.1,13.1,0.2,19.7c0,2.5-0.4,4.8-3.1,5.6c-2.7,0.8-4.3-0.8-5.7-2.9c-2.1-3.2-4.3-6.3-6.5-9.4c-0.2,0.1-0.4,0.2-0.5,0.3
		c0,2.6,0,5.2,0,7.8c-0.1,2.8-1.7,4.8-4,4.8c-2.3,0.1-4.1-1.8-4.1-4.7C75,47,75.1,39.8,75.1,32.6z M59.6,54.1c-0.1-3.6,0-7.2,0-10.8
		c0-3.6,0-7.2,0-10.8c0-2.8,1.7-4.7,4.1-4.7c2.4,0,4,1.8,4.1,4.7c0,7.2,0,14.4,0,21.6c0,2.9-1.7,4.7-4,4.8
		C61.4,58.9,59.7,56.9,59.6,54.1z M131.3,219.2c-0.6-0.1-1.3-0.2-1.8-0.4c-1.9-0.8-2.7-2.3-2.4-4.3c0.3-1.9,1.4-3.1,3.3-3.3
		c1-0.1,2-0.1,3-0.1c13,0,26.1,0,39.1,0c1,0,1.9,0,3.2,0c0-7.6,0-14.8,0-22.2c-34,0-67.8,0-102,0c0,5.7,0,11.3,0,17
		c0,5.2-0.9,5.2,5.3,5.2c11.2,0,22.3,0,33.5,0c0.9,0,1.8,0,2.7,0.1c2.3,0.2,3.6,1.5,3.8,3.8c0.2,2.1-1.4,4.2-3.6,4.3
		c-13.8,0.1-27.7,0.2-41.5-0.1c-4.8-0.1-8.2-4.5-8.2-9.4c0-28,0-55.9,0-83.9c0-5.5,3.7-9.3,9.2-9.6c0.7,0,1.4,0,2.2,0
		c45,0,89.9,0,134.9,0c1.6,0,3.3,0,4.8,0.5c4.1,1.2,6.6,4.8,6.6,9.4c0,14.6,0,29.1,0,43.7c0,12.8,0,25.5,0,38.3
		c0,7.7-3.6,11.2-11.2,11.2c-26.2,0-52.3,0-78.5,0C132.7,219.2,132,219.2,131.3,219.2z M219.2,259.1c-3.7-0.1-6.4-2-8.6-4.9
		c-1.1-1.5-2.2-3.1-3.3-4.6c-1.4-1.8-2.8-1.8-4.2,0c-1.3,1.6-2.4,3.4-3.7,5c-5,6.1-12.3,6-17.2-0.1c-1.2-1.5-2.1-3.1-3.3-4.6
		c-1.7-2.1-2.8-2.2-4.5-0.1c-1.2,1.5-2.3,3.2-3.5,4.8c-1.9,2.4-4.3,4.1-7.4,4.5c-2.6,0.4-4.7-1-5.1-3.3c-0.4-2.4,0.8-4,3.5-4.8
		c1.1-0.4,2.2-1.1,3-2c1.2-1.3,2.1-2.9,3.2-4.3c2.2-2.7,4.9-4.5,8.6-4.4c3.4-0.1,6,1.4,8.1,3.9c1.3,1.5,2.3,3.2,3.5,4.8
		c2,2.6,3.3,2.6,5.2,0c1-1.3,1.8-2.7,2.8-4c4.9-6.5,12.5-6.6,17.6-0.2c0.9,1.1,1.5,2.5,2.5,3.5c1.2,1.1,2.5,2.2,4,2.8
		c2.1,0.9,3.3,2.2,3.1,4.5C223.4,257.6,221.5,259.2,219.2,259.1z M224.6,101.6c-6.7,0.1-13.5,0.1-20.2,0c-2.6,0-4.4-1.9-4.4-4.2
		c0.1-2.3,1.8-3.9,4.5-3.9c3.3,0,6.7,0,10,0s6.7,0,10,0c2.7,0,4.5,1.7,4.5,4C229,99.8,227.2,101.5,224.6,101.6z M222.8,83.7
		c-7.4,0-14.7,0-22.1,0c-7.7,0-15.5,0-23.2,0c-1.1,0-2.5,0-3.1-0.6c-1-1-2.3-2.7-2.1-3.9c0.2-1.3,1.8-2.6,3-3.5
		c0.7-0.5,1.9-0.3,2.9-0.3c14.8,0,29.7,0,44.5,0c4.2,0,6.3,1.4,6.3,4.2C228.9,82.4,226.9,83.7,222.8,83.7z"/>
</g>
</svg>
