<?xml version="1.0" encoding="utf-8"?>
<!-- Generator: Adobe Illustrator 25.2.1, SVG Export Plug-In . SVG Version: 6.00 Build 0)  -->
<svg version="1.1" id="Layer_1" xmlns="http://www.w3.org/2000/svg" xmlns:xlink="http://www.w3.org/1999/xlink" x="0px" y="0px"
	width="24px"
 height="24px" viewBox="0 0 288 288" style="enable-background:new 0 0 288 288;" xml:space="preserve">
<g>
	<path d="M135,33.2c29.5,0,59,0.1,88.5,0.1c2.5,0,5.1-0.1,7.6,0.1c5.3,0.4,8.7,3.9,9.2,9.2c0.1,1.5,0,3,0,4.5
		c0,72.2,0,144.5,0,216.7c0,10-3.1,13.1-13,13.1c-54.5,0-109,0-163.6,0c-10.2,0-13.1-2.7-13.1-12.9c-0.1-73.3-0.1-146.6-0.1-219.9
		c0-7.1,3.6-10.6,10.8-10.8c6.1-0.2,12.2-0.1,18.3-0.2c0,0-0.1-0.2-0.1-0.2c0,33.5-0.3,67,0.1,100.5c0.1,10.3,5.2,19,13.4,25.2
		c10.9,8.2,23,9.8,35.4,3.9c13.1-6.3,19.9-17.4,20-31.8c0.3-25.6,0.1-51.2,0.1-76.9c0-1.3-0.2-2.6-0.3-3.9c-3.2,0-6,0-9.3,0
		c0,2,0,3.8,0,5.5c0,17.3,0,34.6,0,51.8c0,8.6,0.2,17.3-0.3,25.9c-0.5,10.7-8.6,19.9-18.8,22.4c-16.5,4-31-8.6-31-27
		c0-26.1,0.1-52.1,0-78.2c0-5.8-0.1-11.6-0.2-17.4l-0.1,0.1c12.2,0,24.3,0,36.8,0c0,2.6,0,4.4,0,6.2c0,17.9,0,35.7,0,53.6
		c0,7.4,0.1,14.9-0.1,22.3c-0.2,5.9-4.8,10.3-10.6,10.7c-5.7,0.4-10.7-3.5-11.8-9.3c-0.3-1.9-0.4-3.8-0.5-5.8c0-11.9,0-23.8,0-35.7
		c0-7.4-0.1-14.9,0.1-22.3c0.1-3.2-1-4.4-4.1-4c-1.7,0.2-3.4,0.2-5.3,0.3c0,23-0.4,45.5,0.2,67.9c0.3,11.8,12.5,20.3,24.1,18.3
		c10.7-1.8,17.7-10.6,17.8-22.4c0.1-26.6,0.1-53.3,0.1-79.9L135,33.2z M78.2,215.6c45,0,89.7,0,134.5,0c0-4,0-7.7,0-12
		c-2.1,0-4,0-5.9,0c-39.6,0-79.2,0-118.8,0C76.7,203.6,76.7,203.6,78.2,215.6z M78.7,188.7c44.4,0,88.5,0,133.3,0c0-2.2,0-4.1,0-6
		c0-6,0-6-6-6c-40.7,0-81.4,0-122,0c-1.7,0-3.4,0-5.2,0C78.7,181.1,78.7,184.7,78.7,188.7z M78,242.7c2.3,0.1,4.3,0.3,6.4,0.3
		c31.2,0,62.5,0,93.7,0c1,0,2.3,0.3,3.1-0.1c1.1-0.7,2.4-1.8,2.8-3c0.5-1.3,0-3,0.2-4.4c0.5-3.9-1-5-5-5
		c-32.3,0.2-64.6,0.1-96.8,0.1c-1.4,0-2.8,0.2-4.3,0.3C78,235,78,238.6,78,242.7z M209.7,78.8c9,0,14.8-5.9,14.8-14.8
		c0-9-5.8-14.9-14.8-14.9c-8.9,0-14.7,5.8-14.8,14.8C194.9,72.9,200.7,78.8,209.7,78.8z M211.9,130.4c0-2.8-0.2-5.3,0-7.7
		c0.3-3.5-0.9-4.7-4.5-4.6c-12.1,0.2-24.1,0.1-36.2,0.1c-1.3,0-2.6,0.2-3.8,0.3c0,4.2,0,8,0,11.9
		C182.4,130.4,196.9,130.4,211.9,130.4z M211.1,147.8c-14.4,0-29,0-43.7,0c0,4.1,0,7.9,0,12.2c11.6,0,22.9,0,34.2,0
		c11.6,0,11.6-0.1,10-11.6C211.6,148.3,211.5,148.2,211.1,147.8z M211.9,89.6c-15.2,0-29.8,0-44.4,0c0,4.2,0,7.9,0,11.8
		c14.9,0,29.4,0,44.1,0c0.1-1,0.3-1.7,0.3-2.4C211.9,96,211.9,93,211.9,89.6z M168.3,77.6c3.2,0,5.9,0,8.7,0
		c0.1-2.7,0.2-5.1,0.3-7.4c3.2-0.4,6.2-0.5,9-1.2c4.8-1.1,7.3-4.6,7.3-9.3c0-4.4-3-8.8-7.5-9.2c-5.8-0.5-11.7-0.1-17.8-0.1
		C168.3,59.6,168.3,68.4,168.3,77.6z"/>
	<path d="M79.7,33.2c-0.2-16,2.3-18.6,18.5-18.6c8.6,0,17.3,0,25.9,0c7.6,0,10.4,2.9,10.6,10.6c0.1,2.7,0.2,5.3,0.3,8
		c0,0,0.1-0.2,0.1-0.2c-2.9,0-5.9,0-9,0c-0.2-3.3-0.4-6.1-0.6-9.5c-9.5,0-18.5,0-27.5,0c-10.7,0-9.4-0.7-9.5,9.7
		c0,0,0.1-0.1,0.1-0.1c-3,0-6,0-9.1,0L79.7,33.2z"/>
	<path d="M215.4,63.8c0.1,4.3-2.5,7.7-5.8,7.7c-3.2-0.1-5.6-3.2-5.6-7.4c-0.1-4.3,2.5-7.7,5.8-7.7C212.9,56.5,215.4,59.7,215.4,63.8
		z"/>
	<path d="M177.4,63.3c0-2.6,0-4.1,0-6.5c2.7,0.8,5,1.4,7.2,2.2c0.2,0.1,0.2,1.8,0,1.9C182.4,61.7,180.3,62.4,177.4,63.3z"/>
</g>
</svg>
