<?xml version="1.0" encoding="utf-8"?>
<!-- Generator: Adobe Illustrator 25.2.1, SVG Export Plug-In . SVG Version: 6.00 Build 0)  -->
<svg version="1.1" id="Layer_1" xmlns="http://www.w3.org/2000/svg" xmlns:xlink="http://www.w3.org/1999/xlink" x="0px" y="0px"
	width="24px"
 height="24px" viewBox="0 0 288 288" style="enable-background:new 0 0 288 288;" xml:space="preserve">
<g>
	<path d="M37.3,103.4c0-3,0-5.7,0-8.5c0-2.1-0.8-3.1-3.1-3.1c-5.2,0.1-10.3,0-15.9,0c0-2.1-0.3-4.1,0.1-6c0.2-0.8,1.5-1.6,2.5-2.1
		c16.2-7.2,32.4-14.4,48.6-21.6c23.3-10.3,46.6-20.6,69.9-31c1.8-0.8,3.2-0.8,5.1,0c14.5,6.5,29.1,13,43.7,19.4
		c1.7,0.7,2.2,1.4,1.7,3.4c-3.3,11.5-1.6,22.5,4,32.9c2.9,5.4,5.9,10.7,9,16.3C147.5,103.4,92.6,103.4,37.3,103.4z M154.2,69.9
		c-0.2,0.1-0.4,0.1-0.6,0.2c-1.4-2-3-3.8-4-5.9c-1.7-3.3-4.1-3.9-7.5-3c0,5.9,0,11.9,0,18.1c1.7,0,3.3,0,5.2,0c0-3.1,0-6.1,0-9.1
		c2,2,3.5,4.1,4.9,6.2c2.2,3.3,3.3,3.6,7.2,2.6c0-6,0-12,0-17.9c-1.8,0-3.4,0-5.2,0C154.2,64.1,154.2,67,154.2,69.9z M115.9,69.4
		c2.2-1.3,2.9-3.2,2.2-5.5c-0.6-1.9-2.2-2.9-4.1-3c-3.8-0.1-7.7,0-11.7,0c0,6.1,0,12.1,0,18.1c3.9,0,7.7,0.1,11.5,0
		c3-0.1,4.9-1.5,5.4-3.8C119.7,72.8,118.8,71.1,115.9,69.4z M172.2,72c1.2,2.3,1.8,5.1,3.6,6.4c1.7,1.2,4.5,0.9,6.8,1.3
		c0.1-0.3,0.1-0.5,0.2-0.8c-2.2-3.7-4.4-7.3-6.7-11.1c2.1-2.2,4.1-4.4,6-6.4c-6.4-2.8-9.3,1.8-12.5,5.9c-0.2-0.1-0.4-0.2-0.6-0.4
		c0-2,0-4,0-5.9c-2.1,0-3.8,0-5.4,0c0,6.2,0,12.1,0,18.1c1.9,0,3.6,0,5.2,0C169.6,74.1,169.6,74.1,172.2,72z M125.7,79.3
		c0.5-2,1.3-3.5,3.8-3.1c1.9,0.3,4.1-0.6,4.5,2.4c0,0.3,0.8,0.6,1.2,0.7c1.5,0.1,3,0,4.9,0c-2.2-5.8-4.3-11.2-6.3-16.7
		c-0.6-1.6-1.5-2-2.9-1.7c-1.7,0.3-3.8-1.1-4.8,1.7c-1.7,5-3.7,10-5.6,15c-0.2,0.5-0.3,1.1-0.4,1.7
		C122.2,79.3,123.9,79.3,125.7,79.3z"/>
	<path d="M18.3,261.1c0-4.5-0.1-8.7,0.1-12.9c0-0.8,0.6-1.8,1.3-2.2c4.9-3.5,9.9-6.9,14.9-10.2c0.9-0.6,2.1-0.9,3.1-0.9
		c69.5,0,139,0,208.5,0c1,0,2.2,0.3,3.1,0.9c4.9,3.2,9.7,6.6,14.5,9.9c0.6,0.4,1.5,1.2,1.5,1.9c0.1,4.5,0.1,8.9,0.1,13.5
		C182.9,261.1,100.7,261.1,18.3,261.1z"/>
	<path d="M230.7,146c-3.3-5.9-6.5-11.7-9.7-17.5c-7.8-14-15.6-28-23.4-42c-11.2-20-5.8-42.4,13.1-54.1c23.2-14.4,54.9,0.5,58.6,27.5
		c1.3,9.3-0.6,17.8-5,25.8c-10.9,19.7-21.8,39.3-32.8,58.9C231.4,145.1,231.1,145.5,230.7,146z M210.3,65.9
		c0,11.3,9.1,20.5,20.4,20.7c11.2,0.2,20.6-9.3,20.6-20.7c0-11.3-9.2-20.5-20.6-20.5C219.4,45.4,210.3,54.6,210.3,65.9z"/>
	<path d="M188.3,121c0.6,0,1.3,0,2,0c3.6,0,7.2,0,11.1,0c3.5,32.1,4.5,64,0,96.1c-4.5,0-8.8,0-13.2,0
		C183.9,206.5,183.9,134.9,188.3,121z"/>
	<path d="M63.3,217.2c-4.7,0-9,0-13.6,0c-4.5-32-3.5-63.9,0-96c4.5,0,8.9,0,13.5,0C66.8,153.1,67.8,185.1,63.3,217.2z"/>
	<path d="M99.3,121c3.5,32.3,4.4,64.1,0.1,96.1c-4.6,0-9,0-13.8,0c-0.7-7.1-1.8-14.2-2-21.3c-0.3-16.6-0.3-33.2,0-49.9
		c0.1-7.8,1.2-15.6,2-23.4c0.1-0.6,1-1.4,1.5-1.4C91.2,121,95.1,121,99.3,121z"/>
	<path d="M222.8,139.4c2.6,4.6,5.2,9.3,8,14.2c2.8-4.9,5.4-9.6,8-14.2c2.3,25.9,2.5,51.7-1.2,77.8c-2.2,0-4.4,0-6.6,0
		c-2.2,0-4.5,0-6.9,0C220.3,191.3,220.5,165.5,222.8,139.4z"/>
	<path d="M170.4,161.3c-19,0-37.9,0-56.7,0c-1.2-11.4,11.8-23.4,25.5-24.3C157.5,135.8,170.4,148.8,170.4,161.3z"/>
	<path d="M139.7,165.8c0,21.7,0,43.3,0,65.2c-8.7,0-17.4,0-26.3,0c0-21.6,0-43.3,0-65.2C122.1,165.8,130.7,165.8,139.7,165.8z
		 M116.6,169.4c0,19.6,0,38.7,0,58c5.7,0,11.2-0.1,16.7,0.1c2.5,0.1,3.4-0.5,3.3-3.2c-0.2-12.8-0.1-25.7-0.1-38.5
		c0-4.7,0.1-9.5-0.1-14.2c0-0.7-0.9-2.1-1.4-2.1C129.1,169.3,123,169.4,116.6,169.4z"/>
	<path d="M144.2,165.7c8.7,0,17.3,0,26.1,0c0,21.7,0,43.4,0,65.2c-8.6,0-17.3,0-26.1,0C144.2,209.2,144.2,187.5,144.2,165.7z
		 M147.3,169.5c0,19.4,0,38.6,0,57.7c6.7,0,13.3,0,19.9,0c0-19.3,0-38.4,0-57.7C160.6,169.5,154.1,169.5,147.3,169.5z"/>
	<path d="M185.1,231c0-3.3,0-6.5,0-9.9c6.4,0,12.8,0,19.3,0c0,3.2,0,6.4,0,9.9C198,231,191.7,231,185.1,231z"/>
	<path d="M66.2,221.1c0,3.3,0,6.5,0,9.9c-6.5,0-12.8,0-19.3,0c0-3.3,0-6.5,0-9.9C53.3,221.1,59.7,221.1,66.2,221.1z"/>
	<path d="M82.9,231c0-3.3,0-6.6,0-9.9c6.5,0,12.8,0,19.3,0c0,3.3,0,6.5,0,9.9C95.8,231,89.4,231,82.9,231z"/>
	<path d="M240.3,231c-6.5,0-12.7,0-19.1,0c0-3.3,0-6.6,0-10c6.3,0,12.6,0,19.1,0C240.3,224.4,240.3,227.6,240.3,231z"/>
	<path d="M204.4,107.5c0,3.4,0,6.5,0,9.7c-6.4,0-12.8,0-19.3,0c0-3.1,0-6.4,0-9.7C191.6,107.5,197.9,107.5,204.4,107.5z"/>
	<path d="M66.2,107.6c0,3.3,0,6.4,0,9.7c-6.5,0-12.8,0-19.3,0c0-3.2,0-6.3,0-9.7C53.3,107.6,59.7,107.6,66.2,107.6z"/>
	<path d="M102.1,117.3c-6.4,0-12.7,0-19.3,0c0-3-0.1-5.9,0.1-8.7c0-0.4,1-1.2,1.5-1.2c5.8-0.1,11.7-0.1,17.8-0.1
		C102.1,110.7,102.1,113.9,102.1,117.3z"/>
	<path d="M108.1,71.6c1.4,0.1,2.6,0,3.8,0.3c0.6,0.2,1.4,1,1.5,1.6c0.1,0.4-0.8,1.3-1.3,1.5c-1.2,0.3-2.5,0.3-4,0.5
		C108.1,74,108.1,72.9,108.1,71.6z"/>
	<path d="M107.8,64.2c1.8,0.5,3.2,0.8,4.6,1.3c0.2,0.1,0.3,1.5,0.1,1.6c-1.3,0.6-2.7,1-4.5,1.5C107.9,67,107.9,66,107.8,64.2z"/>
	<path d="M127.9,72.3c0.7-2.3,1.2-4.1,2-6.4c0.7,2.3,1.3,4,2,6.1C130.6,72.1,129.5,72.2,127.9,72.3z"/>
</g>
</svg>
