<?xml version="1.0" encoding="utf-8"?>
<!-- Generator: Adobe Illustrator 25.2.1, SVG Export Plug-In . SVG Version: 6.00 Build 0)  -->
<svg version="1.1" id="Layer_1" xmlns="http://www.w3.org/2000/svg" xmlns:xlink="http://www.w3.org/1999/xlink" x="0px" y="0px"
	width="24px"
 height="24px"  viewBox="0 0 288 288" style="enable-background:new 0 0 288 288;" xml:space="preserve">
<style type="text/css">
	.st0{fill-rule:evenodd;clip-rule:evenodd;fill:#010101;}
</style>
<g>
	<path class="st0" d="M18,116.2l125.7-88.7L270,116.8H18V116.2L18,116.2z M21.4,246h10.4v-13.3h2.9v-6.4h7.5v-77.6H25.5v-18.5h235.8
		v18.5h-16.8v77.6h8.1v6.4h2.9V246H266v14.5H21.4V246L21.4,246L21.4,246z M81.7,232.7H91v-6.4h8.1v-77.6H73v77.6h8.1v6.4H81.7
		L81.7,232.7L81.7,232.7z M139.1,232.7h9.3v-6.4h8.1v-77.6h-26.1v77.6h8.1L139.1,232.7L139.1,232.7L139.1,232.7L139.1,232.7z
		 M195.9,232.7h9.3v-6.4h8.1v-77.6h-26.1v77.6h8.1L195.9,232.7L195.9,232.7L195.9,232.7L195.9,232.7z M101.4,93.6l42.3-32.5
		l42.9,32.5H101.4L101.4,93.6L101.4,93.6z"/>
</g>
</svg>
