<?xml version="1.0" encoding="utf-8"?>
<!-- Generator: Adobe Illustrator 25.2.1, SVG Export Plug-In . SVG Version: 6.00 Build 0)  -->
<svg version="1.1" id="Layer_1" xmlns="http://www.w3.org/2000/svg" xmlns:xlink="http://www.w3.org/1999/xlink" x="0px" y="0px"
	width="24px"
 height="24px" viewBox="0 0 288 288" style="enable-background:new 0 0 288 288;" xml:space="preserve">
<g>
	<g>
		<g>
			<path d="M103.4,50.5c-9.3,0-16.9,7.5-16.9,16.9c0,9.3,7.5,16.8,16.9,16.8c9.3,0,16.9-7.5,16.9-16.8
				C120.3,58.1,112.7,50.5,103.4,50.5z M108.5,74.7c-1,1.1-2.3,1.8-4,2v2.5h-1.9v-2.4c-1.5-0.2-2.8-0.8-3.7-1.7c-1-1-1.6-2.3-1.8-4
				l3.5-0.4c0.1,0.7,0.4,1.3,0.8,1.8c0.4,0.5,0.8,0.9,1.3,1.1v-5.5c-1.7-0.5-3-1.2-3.8-2.2c-0.8-1-1.2-2.2-1.2-3.6
				c0-1.4,0.5-2.7,1.4-3.6c0.9-1,2.1-1.6,3.6-1.7v-1.3h1.9v1.3c1.4,0.2,2.5,0.6,3.3,1.4c0.8,0.8,1.4,1.8,1.6,3.2l-3.3,0.4
				c-0.2-1-0.7-1.7-1.6-2.1V65c2.1,0.6,3.6,1.3,4.3,2.2c0.8,0.9,1.2,2.1,1.2,3.5C109.9,72.3,109.4,73.6,108.5,74.7z"/>
			<path d="M100.8,62c0,0.5,0.1,0.9,0.4,1.3c0.3,0.4,0.7,0.7,1.3,1v-4.6c-0.5,0.2-0.9,0.5-1.2,0.9C101,61.1,100.8,61.5,100.8,62z"/>
			<path d="M104.4,68.7v5.2c0.7-0.1,1.2-0.4,1.6-0.9c0.4-0.5,0.6-1.1,0.6-1.7c0-0.6-0.2-1.1-0.5-1.5
				C105.8,69.2,105.2,68.9,104.4,68.7z"/>
		</g>
		<g>
			<path d="M144.7,51.8c-9.3,0-16.8,7.5-16.8,16.8c0,9.3,7.5,16.9,16.8,16.9c9.3,0,16.8-7.5,16.8-16.9
				C161.6,59.4,154,51.8,144.7,51.8z M149.7,76c-1,1.1-2.3,1.8-4,2v2.5h-1.9v-2.4c-1.5-0.2-2.8-0.8-3.7-1.7c-1-1-1.6-2.3-1.8-4
				l3.4-0.4c0.1,0.7,0.4,1.3,0.8,1.8c0.4,0.5,0.8,0.9,1.3,1.1v-5.5c-1.7-0.5-3-1.2-3.8-2.2c-0.8-1-1.2-2.2-1.2-3.6
				c0-1.4,0.5-2.7,1.4-3.6c0.9-1,2.1-1.5,3.6-1.7v-1.3h1.9v1.3c1.4,0.2,2.5,0.6,3.3,1.4c0.8,0.8,1.4,1.8,1.6,3.2l-3.3,0.4
				c-0.2-1-0.7-1.7-1.6-2.1v5.2c2.1,0.6,3.6,1.3,4.3,2.2c0.8,0.9,1.2,2.1,1.2,3.5C151.2,73.6,150.7,74.9,149.7,76z"/>
			<path d="M142.1,63.3c0,0.5,0.1,0.9,0.4,1.3c0.3,0.4,0.7,0.7,1.3,1V61c-0.5,0.2-0.9,0.5-1.2,0.9C142.2,62.3,142.1,62.8,142.1,63.3
				z"/>
			<path d="M145.7,69.9v5.2c0.7-0.1,1.2-0.4,1.6-0.9c0.4-0.5,0.6-1.1,0.6-1.7c0-0.6-0.2-1.1-0.5-1.5
				C147.1,70.5,146.5,70.2,145.7,69.9z"/>
		</g>
		<g>
			<path d="M186,51.8c-9.3,0-16.9,7.5-16.9,16.8c0,9.3,7.5,16.8,16.9,16.8c9.3,0,16.9-7.5,16.9-16.8C202.8,59.4,195.3,51.8,186,51.8
				z M191,76c-1,1.1-2.3,1.8-4,2v2.5h-1.9v-2.4c-1.5-0.2-2.8-0.8-3.7-1.7c-0.9-1-1.6-2.3-1.8-4L183,72c0.1,0.7,0.4,1.3,0.8,1.8
				c0.4,0.5,0.8,0.9,1.3,1.1v-5.5c-1.7-0.5-3-1.2-3.8-2.2c-0.8-1-1.2-2.2-1.2-3.6c0-1.4,0.5-2.7,1.4-3.6c0.9-1,2.1-1.5,3.6-1.7v-1.3
				h1.9v1.3c1.4,0.2,2.5,0.6,3.3,1.4c0.8,0.8,1.4,1.8,1.6,3.2l-3.3,0.4c-0.2-1-0.7-1.7-1.6-2.1v5.2c2.1,0.6,3.6,1.3,4.3,2.2
				c0.8,0.9,1.2,2.1,1.2,3.5C192.4,73.6,192,74.9,191,76z"/>
			<path d="M183.4,63.3c0,0.5,0.1,0.9,0.4,1.3c0.3,0.4,0.7,0.7,1.3,1V61c-0.5,0.2-0.9,0.5-1.2,0.9C183.5,62.3,183.4,62.8,183.4,63.3
				z"/>
			<path d="M187,69.9v5.2c0.7-0.1,1.2-0.4,1.6-0.9c0.4-0.5,0.6-1.1,0.6-1.7c0-0.6-0.2-1.1-0.5-1.5C188.3,70.5,187.8,70.2,187,69.9z"
				/>
		</g>
		<path d="M211.3,17.6H79.5c-12.5,0-22.6,10.1-22.6,22.6v210c0,12.5,10.1,22.6,22.6,22.6h131.8c12.4,0,22.6-10.1,22.6-22.6v-210
			C233.8,27.7,223.7,17.6,211.3,17.6z M118.3,246.4h-34v-26.2h34V246.4z M118.3,211.4h-34v-26.2h34V211.4z M118.3,176.4h-34v-26.2
			h34V176.4z M118.3,141.4h-34v-26.2h34V141.4z M161.8,246.4h-34v-26.2h34V246.4z M161.8,211.4h-34v-26.2h34V211.4z M161.8,176.4
			h-34v-26.2h34V176.4z M161.8,141.4h-34v-26.2h34V141.4z M205.2,246.4h-34v-26.2h34V246.4z M205.2,211.4h-34v-26.2h34V211.4z
			 M205.2,176.4h-34v-26.2h34V176.4z M205.2,141.4h-34v-26.2h34V141.4z M206.8,89.9H84.3V47.4h122.5V89.9z"/>
	</g>
</g>
</svg>
