<?xml version="1.0" encoding="utf-8"?>
<!-- Generator: Adobe Illustrator 25.2.1, SVG Export Plug-In . SVG Version: 6.00 Build 0)  -->
<svg version="1.1" id="Layer_1" xmlns="http://www.w3.org/2000/svg" xmlns:xlink="http://www.w3.org/1999/xlink" x="0px" y="0px"
	width="24px"
 height="24px"  viewBox="0 0 288 288" style="enable-background:new 0 0 288 288;" xml:space="preserve">
<style type="text/css">
	.st0{fill:#010101;}
	.st1{fill-rule:evenodd;clip-rule:evenodd;fill:#010101;}
</style>
<g>
	<path d="M-1840.3,257.7c24.4-22.1,33.7-48.3,22.6-78.7c-11.4-31.3-35.8-45.9-69.2-46.7c-0.1-1.1-0.2-2.5-0.2-3.8
		c0-35,0-70.1,0-105.1c0-7.1,2.4-9.4,9.3-9.4c58,0,116,0,174,0c6.8,0,9.1,2.4,9.1,9.2c0,75.2,0,150.3,0,225.5c0,6.8-2.4,9.1-9.2,9.1
		c-44.2,0-88.4,0-132.5,0C-1837.4,257.7-1838.5,257.7-1840.3,257.7z M-1813.9,103.3c2.1,0,4.8-1.8,5.5-5c1.2-5.6,4.5-7,9.5-6.2
		c0.5,0.1,1,0.1,1.5,0c5.9-0.7,10.7-0.3,12.3,7.2c0.8,3.6,5.5,4.9,8.9,3.6c3.5-1.4,5.2-5.3,4-9.1c-0.5-1.6-1.1-3.1-1.7-4.6
		c-5.1-13.4-10.1-26.7-15.2-40.1c-1.4-3.6-3.9-5.7-7.6-5.8c-3.9-0.1-6.7,2-8.1,5.8c-0.5,1.3-1,2.6-1.5,3.9
		c-5.1,13.3-10.2,26.7-15.2,40.1C-1823.5,98.4-1820.5,103.2-1813.9,103.3z M-1740.2,85.7c2.8,4.7,5.2,8.8,7.7,12.9
		c2.8,4.6,6.6,6,10.4,3.7c3.7-2.2,4.5-6.4,1.9-10.9c-3.4-5.8-6.7-11.6-10.3-17.3c-1.2-1.9-1.1-3.3,0-5.1c2.7-4.3,5.2-8.7,7.8-13.1
		c3.1-5.3,2.8-9.3-1-11.7c-4-2.5-8-1-11.2,4.3c-1.7,2.8-3.4,5.7-5.4,8.9c-2.2-3.7-4.1-6.8-6-10c-2.6-4.2-6.6-5.5-10.3-3.3
		c-3.6,2.1-4.4,6.4-2,10.6c2.6,4.5,5.2,9,8,13.4c1.6,2.4,1.8,4.2,0.1,6.8c-3.5,5.3-6.5,10.8-9.7,16.3c-2.7,4.6-2.1,8.8,1.6,11
		c3.8,2.4,7.9,0.9,10.7-3.8C-1745.3,94.4-1742.9,90.3-1740.2,85.7z M-1850.5,57.4c0,1.9,0,3.4,0,4.9c0,11-0.1,22.1,0,33.1
		c0.1,5.1,2.9,8,7.2,8c4.3,0,7-3.1,7-8.2c0-11.2,0-22.3,0-33.5c0-1.3,0.1-2.7,0.2-4.3c1.7,0,2.9,0,4.2,0c5.2-0.1,8.5-2.9,8.5-7.2
		c0-4.1-3.3-7.1-8.2-7.1c-6.6-0.1-13.2-0.1-19.8,0c-2,0-4.1,0-6,0.4c-3.9,0.8-5.8,3.6-5.5,7.5c0.2,3.5,3,6.2,6.8,6.4
		C-1854.5,57.5-1852.8,57.4-1850.5,57.4z M-1752.4,200.6c7.4,0,14.7,0,22.1,0c5,0,8.2-2.8,8.3-7c0.1-4.3-3.2-7.4-8.3-7.5
		c-14.6-0.1-29.2-0.1-43.8,0c-5.1,0-8.3,3-8.2,7.4c0.1,4.3,3.2,7,8.2,7C-1766.9,200.6-1759.6,200.6-1752.4,200.6z M-1751.7,157.9
		c-7.6,0-15.2,0-22.8,0c-4.8,0-7.7,2.7-7.8,6.9c0,4.2,2.8,7.1,7.6,7.2c15.1,0.1,30.2,0.1,45.2,0c4.6,0,7.6-3.3,7.5-7.3
		c-0.2-3.9-3.2-6.7-7.6-6.7C-1737,157.9-1744.4,157.9-1751.7,157.9z M-1752.5,229.1C-1752.5,229.1-1752.5,229.1-1752.5,229.1
		c7.6,0,15.2,0.1,22.8,0c4.6-0.1,7.7-3.1,7.7-7.1c0-4.1-3.2-6.9-7.8-6.9c-15,0-29.9,0-44.9,0c-1.5,0-3.1,0.3-4.3,1
		c-3,1.7-3.9,4.6-3.1,7.9c0.9,3.3,3.3,5.1,6.7,5.1C-1767.8,229.2-1760.1,229.1-1752.5,229.1z"/>
	<path d="M-1827.6,202.4c-0.2,30.8-25.3,55.5-56.4,55.3c-30.1-0.2-54.6-25.6-54.4-56.5c0.2-29.6,25.5-54.4,55.4-54.4
		C-1852.5,146.9-1827.4,172.2-1827.6,202.4z M-1873.2,190.6c1.6-1.1,4.4-2.1,5-3.9c0.8-2.2,0.1-5.1-0.7-7.4
		c-0.4-1.3-2.3-2.4-3.7-3.1c-2-1-3.3-2.1-3.8-4.6c-0.8-3.8-3.6-5.6-7.2-5.4c-3.4,0.2-6.3,2.5-6.6,6.1c-0.2,2.2-1.2,3.3-2.8,4.4
		c-10.1,7.1-9.7,20.9,0.9,27.2c2.9,1.7,6.2,2.8,9.4,4.1c2,0.8,4.4,1.3,3.9,4.2c-0.5,3-2.8,4.3-5.5,4.1c-2.2-0.2-4.3-1.1-6.4-2
		c-3.7-1.7-7.8-0.9-9.8,2.3c-2.2,3.5-1.2,7.4,2.4,9.9c1.5,1,3,1.9,4.7,2.5c1.8,0.7,2.8,1.3,3.2,3.5c0.7,3.8,4,6.1,7.3,5.9
		c3.4-0.2,6.4-2.8,6.7-6.6c0.2-2.2,1-3.3,2.8-4.4c6.5-4.3,9.7-10.3,8.8-18.1c-0.9-7.5-5.7-11.9-12.5-14.4c-2.4-0.9-4.8-1.7-7-2.8
		c-0.8-0.4-1.8-1.9-1.6-2.5c0.3-0.8,1.6-1.8,2.5-1.9c1.4,0,2.9,0.6,4.3,1.1C-1877.2,189.3-1875.7,189.8-1873.2,190.6z"/>
	<path d="M-1796.9,68.6c1.4,3.6,2.3,6.1,3.4,9c-2.4,0-4.4,0-6.8,0C-1799.3,74.9-1798.3,72.3-1796.9,68.6z"/>
</g>
<g>
	<path d="M-311.6,95.3c0-3,0-5.7,0-8.5c0-2.1-0.8-3.1-3.1-3.1c-5.2,0.1-10.3,0-15.9,0c0-2.1-0.3-4.1,0.1-6c0.2-0.8,1.5-1.6,2.5-2.1
		c16.2-7.2,32.4-14.4,48.6-21.6c23.3-10.3,46.6-20.6,69.9-31c1.8-0.8,3.2-0.8,5.1,0c14.5,6.5,29.1,13,43.7,19.4
		c1.7,0.7,2.2,1.4,1.7,3.4c-3.3,11.5-1.6,22.5,4,32.9c2.9,5.4,5.9,10.7,9,16.3C-201.4,95.3-256.3,95.3-311.6,95.3z M-194.7,61.7
		c-0.2,0.1-0.4,0.1-0.6,0.2c-1.4-2-3-3.8-4-5.9c-1.7-3.3-4.1-3.9-7.5-3c0,5.9,0,11.9,0,18.1c1.7,0,3.3,0,5.2,0c0-3.1,0-6.1,0-9.1
		c2,2,3.5,4.1,4.9,6.2c2.2,3.3,3.3,3.6,7.2,2.6c0-6,0-12,0-17.9c-1.8,0-3.4,0-5.2,0C-194.7,56-194.7,58.9-194.7,61.7z M-233.1,61.3
		c2.2-1.3,2.9-3.2,2.2-5.5c-0.6-1.9-2.2-2.9-4.1-3c-3.8-0.1-7.7,0-11.7,0c0,6.1,0,12.1,0,18.1c3.9,0,7.7,0.1,11.5,0
		c3-0.1,4.9-1.5,5.4-3.8C-229.2,64.6-230.1,62.9-233.1,61.3z M-176.7,63.9c1.2,2.3,1.8,5.1,3.6,6.4c1.7,1.2,4.5,0.9,6.8,1.3
		c0.1-0.3,0.1-0.5,0.2-0.8c-2.2-3.7-4.4-7.3-6.7-11.1c2.1-2.2,4.1-4.4,6-6.4c-6.4-2.8-9.3,1.8-12.5,5.9c-0.2-0.1-0.4-0.2-0.6-0.4
		c0-2,0-4,0-5.9c-2.1,0-3.8,0-5.4,0c0,6.2,0,12.1,0,18.1c1.9,0,3.6,0,5.2,0C-179.3,65.9-179.3,65.9-176.7,63.9z M-223.2,71.1
		c0.5-2,1.3-3.5,3.8-3.1c1.9,0.3,4.1-0.6,4.5,2.4c0,0.3,0.8,0.6,1.2,0.7c1.5,0.1,3,0,4.9,0c-2.2-5.8-4.3-11.2-6.3-16.7
		c-0.6-1.6-1.5-2-2.9-1.7c-1.7,0.3-3.8-1.1-4.8,1.7c-1.7,5-3.7,10-5.6,15c-0.2,0.5-0.3,1.1-0.4,1.7
		C-226.8,71.1-225.1,71.1-223.2,71.1z"/>
	<path d="M-330.6,253c0-4.5-0.1-8.7,0.1-12.9c0-0.8,0.6-1.8,1.3-2.2c4.9-3.5,9.9-6.9,14.9-10.2c0.9-0.6,2.1-0.9,3.1-0.9
		c69.5,0,139,0,208.5,0c1,0,2.2,0.3,3.1,0.9c4.9,3.2,9.7,6.6,14.5,9.9c0.6,0.4,1.5,1.2,1.5,1.9c0.1,4.5,0.1,8.9,0.1,13.5
		C-166,253-248.2,253-330.6,253z"/>
	<path d="M-118.3,137.9c-3.3-5.9-6.5-11.7-9.7-17.5c-7.8-14-15.6-28-23.4-42c-11.2-20-5.8-42.4,13.1-54.1
		c23.2-14.4,54.9,0.5,58.6,27.5c1.3,9.3-0.6,17.8-5,25.8c-10.9,19.7-21.8,39.3-32.8,58.9C-117.6,137-117.8,137.3-118.3,137.9z
		 M-138.7,57.8c0,11.3,9.1,20.5,20.4,20.7c11.2,0.2,20.6-9.3,20.6-20.7c0-11.3-9.2-20.5-20.6-20.5
		C-129.5,37.2-138.7,46.4-138.7,57.8z"/>
	<path d="M-160.6,112.8c0.6,0,1.3,0,2,0c3.6,0,7.2,0,11.1,0c3.5,32.1,4.5,64,0,96.1c-4.5,0-8.8,0-13.2,0
		C-165,198.3-165,126.7-160.6,112.8z"/>
	<path d="M-285.7,209c-4.7,0-9,0-13.6,0c-4.5-32-3.5-63.9,0-96c4.5,0,8.9,0,13.5,0C-282.2,145-281.2,176.9-285.7,209z"/>
	<path d="M-249.6,112.8c3.5,32.3,4.4,64.1,0.1,96.1c-4.6,0-9,0-13.8,0c-0.7-7.1-1.8-14.2-2-21.3c-0.3-16.6-0.3-33.2,0-49.9
		c0.1-7.8,1.2-15.6,2-23.4c0.1-0.6,1-1.4,1.5-1.4C-257.8,112.8-253.8,112.8-249.6,112.8z"/>
	<path d="M-126.1,131.3c2.6,4.6,5.2,9.3,8,14.2c2.8-4.9,5.4-9.6,8-14.2c2.3,25.9,2.5,51.7-1.2,77.8c-2.2,0-4.4,0-6.6,0
		c-2.2,0-4.5,0-6.9,0C-128.6,183.1-128.4,157.3-126.1,131.3z"/>
	<path d="M-178.6,153.1c-19,0-37.9,0-56.7,0c-1.2-11.4,11.8-23.4,25.5-24.3C-191.4,127.6-178.5,140.7-178.6,153.1z"/>
	<path d="M-209.2,157.6c0,21.7,0,43.3,0,65.2c-8.7,0-17.4,0-26.3,0c0-21.6,0-43.3,0-65.2C-226.9,157.6-218.2,157.6-209.2,157.6z
		 M-232.3,161.2c0,19.6,0,38.7,0,58c5.7,0,11.2-0.1,16.7,0.1c2.5,0.1,3.4-0.5,3.3-3.2c-0.2-12.8-0.1-25.7-0.1-38.5
		c0-4.7,0.1-9.5-0.1-14.2c0-0.7-0.9-2.1-1.4-2.1C-219.8,161.1-225.9,161.2-232.3,161.2z"/>
	<path d="M-204.8,157.6c8.7,0,17.3,0,26.1,0c0,21.7,0,43.4,0,65.2c-8.6,0-17.3,0-26.1,0C-204.8,201-204.8,179.4-204.8,157.6z
		 M-201.6,161.3c0,19.4,0,38.6,0,57.7c6.7,0,13.3,0,19.9,0c0-19.3,0-38.4,0-57.7C-188.4,161.3-194.9,161.3-201.6,161.3z"/>
	<path d="M-163.9,222.8c0-3.3,0-6.5,0-9.9c6.4,0,12.8,0,19.3,0c0,3.2,0,6.4,0,9.9C-151,222.8-157.3,222.8-163.9,222.8z"/>
	<path d="M-282.8,212.9c0,3.3,0,6.5,0,9.9c-6.5,0-12.8,0-19.3,0c0-3.3,0-6.5,0-9.9C-295.6,212.9-289.3,212.9-282.8,212.9z"/>
	<path d="M-266,222.8c0-3.3,0-6.6,0-9.9c6.5,0,12.8,0,19.3,0c0,3.3,0,6.5,0,9.9C-253.2,222.8-259.5,222.8-266,222.8z"/>
	<path d="M-108.6,222.9c-6.5,0-12.7,0-19.1,0c0-3.3,0-6.6,0-10c6.3,0,12.6,0,19.1,0C-108.6,216.2-108.6,219.4-108.6,222.9z"/>
	<path d="M-144.5,99.3c0,3.4,0,6.5,0,9.7c-6.4,0-12.8,0-19.3,0c0-3.1,0-6.4,0-9.7C-157.4,99.3-151,99.3-144.5,99.3z"/>
	<path d="M-282.7,99.4c0,3.3,0,6.4,0,9.7c-6.5,0-12.8,0-19.3,0c0-3.2,0-6.3,0-9.7C-295.6,99.4-289.3,99.4-282.7,99.4z"/>
	<path d="M-246.8,109.1c-6.4,0-12.7,0-19.3,0c0-3-0.1-5.9,0.1-8.7c0-0.4,1-1.2,1.5-1.2c5.8-0.1,11.7-0.1,17.8-0.1
		C-246.8,102.6-246.8,105.8-246.8,109.1z"/>
	<path d="M-240.9,63.4c1.4,0.1,2.6,0,3.8,0.3c0.6,0.2,1.4,1,1.5,1.6c0.1,0.4-0.8,1.3-1.3,1.5c-1.2,0.3-2.5,0.3-4,0.5
		C-240.9,65.9-240.9,64.7-240.9,63.4z"/>
	<path d="M-241.1,56c1.8,0.5,3.2,0.8,4.6,1.3c0.2,0.1,0.3,1.5,0.1,1.6c-1.3,0.6-2.7,1-4.5,1.5C-241,58.8-241,57.8-241.1,56z"/>
	<path d="M-221,64.1c0.7-2.3,1.2-4.1,2-6.4c0.7,2.3,1.3,4,2,6.1C-218.4,64-219.5,64-221,64.1z"/>
</g>
<g>
	<path d="M-1517.5,40.4c29.5,0,59,0.1,88.5,0.1c2.5,0,5.1-0.1,7.6,0.1c5.3,0.4,8.7,3.9,9.2,9.2c0.1,1.5,0,3,0,4.5
		c0,72.2,0,144.5,0,216.7c0,10-3.1,13.1-13,13.1c-54.5,0-109,0-163.6,0c-10.2,0-13.1-2.7-13.1-12.9c-0.1-73.3-0.1-146.6-0.1-219.9
		c0-7.1,3.6-10.6,10.8-10.8c6.1-0.2,12.2-0.1,18.3-0.2c0,0-0.1-0.2-0.1-0.2c0,33.5-0.3,67,0.1,100.5c0.1,10.3,5.2,19,13.4,25.2
		c10.9,8.2,23,9.8,35.4,3.9c13.1-6.3,19.9-17.4,20-31.8c0.3-25.6,0.1-51.2,0.1-76.9c0-1.3-0.2-2.6-0.3-3.9c-3.2,0-6,0-9.3,0
		c0,2,0,3.8,0,5.5c0,17.3,0,34.6,0,51.8c0,8.6,0.2,17.3-0.3,25.9c-0.5,10.7-8.6,19.9-18.8,22.4c-16.5,4-31-8.6-31-27
		c0-26.1,0.1-52.1,0-78.2c0-5.8-0.1-11.6-0.2-17.4l-0.1,0.1c12.2,0,24.3,0,36.8,0c0,2.6,0,4.4,0,6.2c0,17.9,0,35.7,0,53.6
		c0,7.4,0.1,14.9-0.1,22.3c-0.2,5.9-4.8,10.3-10.6,10.7c-5.7,0.4-10.7-3.5-11.8-9.3c-0.3-1.9-0.4-3.8-0.5-5.8c0-11.9,0-23.8,0-35.7
		c0-7.4-0.1-14.9,0.1-22.3c0.1-3.2-1-4.4-4.1-4c-1.7,0.2-3.4,0.2-5.3,0.3c0,23-0.4,45.5,0.2,67.9c0.3,11.8,12.5,20.3,24.1,18.3
		c10.7-1.8,17.7-10.6,17.8-22.4c0.1-26.6,0.1-53.3,0.1-79.9L-1517.5,40.4z M-1574.3,222.7c45,0,89.7,0,134.5,0c0-4,0-7.7,0-12
		c-2.1,0-4,0-5.9,0c-39.6,0-79.2,0-118.8,0C-1575.8,210.7-1575.8,210.7-1574.3,222.7z M-1573.8,195.9c44.4,0,88.5,0,133.3,0
		c0-2.2,0-4.1,0-6c0-6,0-6-6-6c-40.7,0-81.4,0-122,0c-1.7,0-3.4,0-5.2,0C-1573.8,188.2-1573.8,191.9-1573.8,195.9z M-1574.5,249.8
		c2.3,0.1,4.3,0.3,6.4,0.3c31.2,0,62.5,0,93.7,0c1,0,2.3,0.3,3.1-0.1c1.1-0.7,2.4-1.8,2.8-3c0.5-1.3,0-3,0.2-4.4c0.5-3.9-1-5-5-5
		c-32.3,0.2-64.6,0.1-96.8,0.1c-1.4,0-2.8,0.2-4.3,0.3C-1574.5,242.1-1574.5,245.8-1574.5,249.8z M-1442.8,85.9
		c9,0,14.8-5.9,14.8-14.8c0-9-5.8-14.9-14.8-14.9c-8.9,0-14.7,5.8-14.8,14.8C-1457.6,80-1451.8,85.9-1442.8,85.9z M-1440.6,137.6
		c0-2.8-0.2-5.3,0-7.7c0.3-3.5-0.9-4.7-4.5-4.6c-12.1,0.2-24.1,0.1-36.2,0.1c-1.3,0-2.6,0.2-3.8,0.3c0,4.2,0,8,0,11.9
		C-1470.2,137.6-1455.6,137.6-1440.6,137.6z M-1441.4,155c-14.4,0-29,0-43.7,0c0,4.1,0,7.9,0,12.2c11.6,0,22.9,0,34.2,0
		c11.6,0,11.6-0.1,10-11.6C-1440.9,155.4-1441,155.3-1441.4,155z M-1440.6,96.7c-15.2,0-29.8,0-44.4,0c0,4.2,0,7.9,0,11.8
		c14.9,0,29.4,0,44.1,0c0.1-1,0.3-1.7,0.3-2.4C-1440.6,103.1-1440.6,100.2-1440.6,96.7z M-1484.2,84.7c3.2,0,5.9,0,8.7,0
		c0.1-2.7,0.2-5.1,0.3-7.4c3.2-0.4,6.2-0.5,9-1.2c4.8-1.1,7.3-4.6,7.3-9.3c0-4.4-3-8.8-7.5-9.2c-5.8-0.5-11.7-0.1-17.8-0.1
		C-1484.2,66.7-1484.2,75.6-1484.2,84.7z"/>
	<path d="M-1572.8,40.4c-0.2-16,2.3-18.6,18.5-18.6c8.6,0,17.3,0,25.9,0c7.6,0,10.4,2.9,10.6,10.6c0.1,2.7,0.2,5.3,0.3,8
		c0,0,0.1-0.2,0.1-0.2c-2.9,0-5.9,0-9,0c-0.2-3.3-0.4-6.1-0.6-9.5c-9.5,0-18.5,0-27.5,0c-10.7,0-9.4-0.7-9.5,9.7
		c0,0,0.1-0.1,0.1-0.1c-3,0-6,0-9.1,0L-1572.8,40.4z"/>
	<path d="M-1437.1,71c0.1,4.3-2.5,7.7-5.8,7.7c-3.2-0.1-5.6-3.2-5.6-7.4c-0.1-4.3,2.5-7.7,5.8-7.7
		C-1439.6,63.6-1437.2,66.9-1437.1,71z"/>
	<path d="M-1475.1,70.5c0-2.6,0-4.1,0-6.5c2.7,0.8,5,1.4,7.2,2.2c0.2,0.1,0.2,1.8,0,1.9C-1470.1,68.9-1472.3,69.5-1475.1,70.5z"/>
</g>
<g>
	<path d="M-1201.9,57.7c4,0,7.1-3.2,7.2-7.2c0-4.1-3.3-7.3-7.4-7.2c-4,0.1-7.2,3.3-7.2,7.2C-1209.4,54.5-1206.1,57.7-1201.9,57.7z"
		/>
	<path d="M-1129.6,187.4c0-8.6,0-17,0-25.5c-10.2,0-20.4,0-30.7,0c0,8.7,0,17.1,0,25.5C-1149.9,187.4-1139.8,187.4-1129.6,187.4z"/>
	<path d="M-1129.6,215.8c0.2-2.1,0.1-4.3,0.1-6.5c0-4.4,0-8.9,0-13.4c-10.5,0-20.6,0-30.8,0c0,7.4,0,14.6,0,22.1
		c9.8,0,19.5,0,29.1-0.1C-1130.6,218-1129.6,216.6-1129.6,215.8z"/>
	<path d="M-1267.4,131.4c-3.5,0-3.5,0-3.5,3.6c0,5.4,0,10.8,0,16.2c0,0.8,0.1,1.5,0.1,2.2c34.1,0,68,0,101.9,0c0-7.4,0-14.5,0-22
		c-5.4,0-10.5,0-15.7,0C-1212.2,131.4-1239.8,131.4-1267.4,131.4z"/>
	<path d="M-1270.7,187.5c34,0,67.8,0,101.7,0c0-8.7,0-17.1,0-25.6c-34,0-67.9,0-101.7,0C-1270.7,170.5-1270.7,179-1270.7,187.5z"/>
	<path d="M-1129.4,134.1c0-2.1-0.7-2.8-2.8-2.8c-7.2,0.1-14.4,0-21.5,0c-2.1,0-4.3,0-6.5,0c0,7.5,0,14.7,0,22c10.3,0,20.5,0,30.8,0
		C-1129.5,146.9-1129.5,140.5-1129.4,134.1z"/>
	<path d="M-1116.1,16.7h-168.5c-11.4,0-20.7,9.3-20.7,20.7v229c0,11.4,9.3,20.7,20.7,20.7h168.5c11.4,0,20.7-9.3,20.7-20.7v-229
		C-1095.4,25.9-1104.7,16.7-1116.1,16.7z M-1133.2,39.5c0-2.6,1.4-4.3,4.1-4.4c3.1-0.2,6.3-0.2,9.4,0c2.5,0.1,4.2,1.9,4.2,4.1
		c0,2.3-1.8,4-4.4,4.2c-0.8,0.1-1.6,0-2.4,0c-0.8,0-1.6,0.1-2.6,0.1c0,1,0,1.7,0,2.5c0.4,0.1,0.7,0.3,1,0.3c1.4,0.1,2.9,0,4.3,0.2
		c2.2,0.4,3.5,1.9,3.4,4.2c-0.1,2.1-1.4,3.5-3.5,3.8c-1.7,0.2-3.4,0.2-5.2,0.3c0,0.9,0,1.7,0,2.8c1.6,0,3.2-0.1,4.8,0
		c2.8,0.1,4.7,1.9,4.6,4.2c0,2.3-1.8,3.9-4.5,4c-3,0.1-5.9,0.1-8.9,0c-2.8-0.1-4.3-1.7-4.3-4.5
		C-1133.3,54.1-1133.3,46.8-1133.2,39.5z M-1160.4,39c4.6-4.2,11.4-5.2,17.1-2.5c0.6,0.3,1.3,0.7,1.9,1.1c1.9,1.4,2.4,3.6,1.3,5.4
		c-1.1,1.9-3.1,2.5-5.4,1.6c-1.5-0.6-3-1.3-4.6-1.3c-4.2-0.1-7.2,3.2-7.1,7.4c0.1,4.1,3.5,7.3,7.7,6.8c1.3-0.1,2.6-1,3.7-1.8
		c2.1-1.5,4.3-1.6,5.9,0c1.7,1.7,1.6,4-0.2,6c-2.7,2.9-6.1,4-9.5,4.2c-6.7,0-12.6-4.1-14.8-10C-1166.7,50.1-1165.1,43.4-1160.4,39z
		 M-1176,35c2.5,0,4.1,2,4.2,5.2c0,3.4,0,6.8,0,10.2s0,6.8,0,10.2c0,3.3-1.6,5.3-4.1,5.3c-2.5,0-4.2-2-4.2-5.2c0-6.8,0-13.7,0-20.5
		C-1180.1,37-1178.5,35-1176,35z M-1201.9,34.9c8.5,0.1,15.3,7.1,15.3,15.6c0,8.5-7,15.5-15.4,15.5c-8.6,0-15.4-7.1-15.4-15.8
		C-1217.4,41.8-1210.3,34.8-1201.9,34.9z M-1240.2,35.8c1.6-1.1,3.3-1.2,4.7,0.1c0.8,0.7,1.4,1.8,1.8,2.9c1.4,3.6,2.6,7.2,4,11.4
		c1.4-4.1,2.6-7.7,3.8-11.4c1.1-3.1,3-4.3,5.3-3.5c2.5,0.8,3.4,3,2.4,6.1c-2.2,6.8-4.6,13.6-6.8,20.4c-0.8,2.4-2.1,4.1-4.7,4.1
		c-2.6,0-3.9-1.6-4.8-4c-2.3-7-4.8-13.9-7.2-20.8C-1242.1,39.1-1242.1,37.2-1240.2,35.8z M-1269.5,39.8c0-2.2,0.7-3.9,3-4.6
		c2.3-0.7,3.7,0.5,5,2.3c2.4,3.5,4.9,7.1,7.9,10.6c0-2.6,0-5.2,0-7.8c0-3.3,1.5-5.3,4-5.3c2.5,0,4.1,1.9,4.1,5.2
		c0.1,6.6,0.1,13.1,0.2,19.7c0,2.5-0.4,4.8-3.1,5.6c-2.7,0.8-4.3-0.8-5.7-2.9c-2.1-3.2-4.3-6.3-6.5-9.4c-0.2,0.1-0.4,0.2-0.5,0.3
		c0,2.6,0,5.2,0,7.8c-0.1,2.8-1.7,4.8-4,4.8c-2.3,0.1-4.1-1.8-4.1-4.7C-1269.5,54.2-1269.4,47-1269.5,39.8z M-1284.9,61.3
		c-0.1-3.6,0-7.2,0-10.8c0-3.6,0-7.2,0-10.8c0-2.8,1.7-4.7,4.1-4.7c2.4,0,4,1.8,4.1,4.7c0,7.2,0,14.4,0,21.6c0,2.9-1.7,4.7-4,4.8
		C-1283.1,66-1284.8,64.1-1284.9,61.3z M-1213.2,226.3c-0.6-0.1-1.3-0.2-1.8-0.4c-1.9-0.8-2.7-2.3-2.4-4.3c0.3-1.9,1.4-3.1,3.3-3.3
		c1-0.1,2-0.1,3-0.1c13,0,26.1,0,39.1,0c1,0,1.9,0,3.2,0c0-7.6,0-14.8,0-22.2c-34,0-67.8,0-102,0c0,5.7,0,11.3,0,17
		c0,5.2-0.9,5.2,5.3,5.2c11.2,0,22.3,0,33.5,0c0.9,0,1.8,0,2.7,0.1c2.3,0.2,3.6,1.5,3.8,3.8c0.2,2.1-1.4,4.2-3.6,4.3
		c-13.8,0.1-27.7,0.2-41.5-0.1c-4.8-0.1-8.2-4.5-8.2-9.4c0-28,0-55.9,0-83.9c0-5.5,3.7-9.3,9.2-9.6c0.7,0,1.4,0,2.2,0
		c45,0,89.9,0,134.9,0c1.6,0,3.3,0,4.8,0.5c4.1,1.2,6.6,4.8,6.6,9.4c0,14.6,0,29.1,0,43.7c0,12.8,0,25.5,0,38.3
		c0,7.7-3.6,11.2-11.2,11.2c-26.2,0-52.3,0-78.5,0C-1211.8,226.3-1212.5,226.4-1213.2,226.3z M-1125.3,266.2c-3.7-0.1-6.4-2-8.6-4.9
		c-1.1-1.5-2.2-3.1-3.3-4.6c-1.4-1.8-2.8-1.8-4.2,0c-1.3,1.6-2.4,3.4-3.7,5c-5,6.1-12.3,6-17.2-0.1c-1.2-1.5-2.1-3.1-3.3-4.6
		c-1.7-2.1-2.8-2.2-4.5-0.1c-1.2,1.5-2.3,3.2-3.5,4.8c-1.9,2.4-4.3,4.1-7.4,4.5c-2.6,0.4-4.7-1-5.1-3.3c-0.4-2.4,0.8-4,3.5-4.8
		c1.1-0.4,2.2-1.1,3-2c1.2-1.3,2.1-2.9,3.2-4.3c2.2-2.7,4.9-4.5,8.6-4.4c3.4-0.1,6,1.4,8.1,3.9c1.3,1.5,2.3,3.2,3.5,4.8
		c2,2.6,3.3,2.6,5.2,0c1-1.3,1.8-2.7,2.8-4c4.9-6.5,12.5-6.6,17.6-0.2c0.9,1.1,1.5,2.5,2.5,3.5c1.2,1.1,2.5,2.2,4,2.8
		c2.1,0.9,3.3,2.2,3.1,4.5C-1121.1,264.7-1123,266.3-1125.3,266.2z M-1120,108.7c-6.7,0.1-13.5,0.1-20.2,0c-2.6,0-4.4-1.9-4.4-4.2
		c0.1-2.3,1.8-3.9,4.5-3.9c3.3,0,6.7,0,10,0c3.3,0,6.7,0,10,0c2.7,0,4.5,1.7,4.5,4C-1115.5,106.9-1117.3,108.7-1120,108.7z
		 M-1121.7,90.9c-7.4,0-14.7,0-22.1,0c-7.7,0-15.5,0-23.2,0c-1.1,0-2.5,0-3.1-0.6c-1-1-2.3-2.7-2.1-3.9c0.2-1.3,1.8-2.6,3-3.5
		c0.7-0.5,1.9-0.3,2.9-0.3c14.8,0,29.7,0,44.5,0c4.2,0,6.3,1.4,6.3,4.2C-1115.6,89.6-1117.6,90.9-1121.7,90.9z"/>
</g>
<g>
	<path class="st0" d="M-802.2,77.5c0,1.2-0.6,1.8,0,2.4V77.5z"/>
	<path class="st0" d="M-780.3,48.3h-14.3v29.2c0,11.9-10.1,21.5-22.1,21.5s-22.1-9.5-22.1-21.5V48.3h-86.4v29.2
		c0,11.9-10.1,21.5-22.1,21.5c-11.9,0-22.1-9.5-22.1-21.5V48.3h-14.3c-13.1,0-23.2,10.7-23.2,23.2v181.2c0,12.5,10.1,22.6,23.2,22.6
		h203.2c12.5,0,23.2-10.1,23.2-22.6V71.5C-757,59-767.7,48.3-780.3,48.3z M-902.4,144.9c0-3.6,3-6.6,6.6-6.6h28.6
		c3.6,0,6.6,3,6.6,6.6v18.5c0,3.6-3,6.6-6.6,6.6h-28.6c-3.6,0-6.6-3-6.6-6.6V144.9z M-922,218.8c0,3.6-3,6.6-6.6,6.6h-28.6
		c-3.6,0-7.2-3-6.6-6.6v-18.5c0-3.6,3-6.6,6.6-6.6h28.6c3.6,0,6.6,3,6.6,6.6V218.8z M-922,163.3c0,3.6-3,6.6-6.6,6.6h-28.6
		c-3.6,0-7.2-3-6.6-6.6v-18.5c0-3.6,3-6.6,6.6-6.6h28.6c3.6,0,6.6,3,6.6,6.6V163.3z M-860.6,218.8c0,3.6-3,6.6-6.6,6.6h-28.6
		c-3.6,0-6.6-3-6.6-6.6v-18.5c0-3.6,3-6.6,6.6-6.6h28.6c3.6,0,6.6,3,6.6,6.6V218.8z M-798.6,218.8c0,3.6-3,6.6-6.6,6.6h-28.6
		c-4.2,0-7.2-3-6.6-6.6v-18.5c0-3.6,3-6.6,6.6-6.6h28.6c3.6,0,6.6,3,6.6,6.6V218.8z M-798.6,163.3c0,3.6-3,6.6-6.6,6.6h-28.6
		c-4.2,0-7.2-3-6.6-6.6v-18.5c0-3.6,3-6.6,6.6-6.6h28.6c3.6,0,6.6,3,6.6,6.6V163.3z"/>
	<path class="st0" d="M-946.5,90.2c7.7,0,13.7-6,13.7-13.7V36.6c0-7.2-6-13.7-13.7-13.7s-13.7,6-13.7,13.7v39.9
		C-960.2,84.3-954.3,90.2-946.5,90.2z"/>
	<path class="st0" d="M-816.6,90.2c7.7,0,13.7-6,13.7-13.7V36.6c0-7.2-6-13.7-13.7-13.7c-7.7,0-13.7,6-13.7,13.7v39.9
		C-829.7,84.3-823.8,90.2-816.6,90.2z"/>
</g>
<g>
	<path class="st1" d="M-660.2,118.2l125.7-88.7l126.3,89.2h-252.1V118.2L-660.2,118.2z M-656.7,248h10.4v-13.3h2.9v-6.4h7.5v-77.6
		h-16.8v-18.5h235.8v18.5h-16.8v77.6h8.1v6.4h2.9V248h10.4v14.5h-244.5V248L-656.7,248L-656.7,248z M-596.4,234.7h9.3v-6.4h8.1
		v-77.6h-26.1v77.6h8.1v6.4H-596.4L-596.4,234.7L-596.4,234.7z M-539.1,234.7h9.3v-6.4h8.1v-77.6h-26.1v77.6h8.1L-539.1,234.7
		L-539.1,234.7L-539.1,234.7L-539.1,234.7z M-482.3,234.7h9.3v-6.4h8.1v-77.6H-491v77.6h8.1L-482.3,234.7L-482.3,234.7L-482.3,234.7
		L-482.3,234.7z M-576.7,95.6l42.3-32.5l42.9,32.5H-576.7L-576.7,95.6L-576.7,95.6z"/>
</g>
<g>
	<path d="M217.8,88.5c-0.2,18.3-6,34.8-13.4,50.7c-13.6,29.6-32,56.2-51.3,82.3c-1.6,2.1-3.2,4.3-4.8,6.4c-3.1,4-5.7,4-8.8-0.4
		c-10.3-14.3-20.9-28.6-30.6-43.3c-14.4-21.8-27.2-44.6-34.7-69.9c-8.3-28-4.4-53.8,15.9-75.5c20.2-21.6,45.6-28.6,74-20.6
		c28.4,8.1,45.6,27.7,52.3,56.4c0.4,1.7,0.7,3.5,0.9,5.3C217.5,82.9,217.6,85.9,217.8,88.5z M182.9,90.6c1.4-21-15.3-39-37.6-40.5
		c-20-1.4-38.8,15.6-40.3,36.6c-1.5,21.3,15.4,40.1,37.3,41.5C163.3,129.5,181.5,112.7,182.9,90.6z"/>
	<path d="M143.2,273c-19.2-0.6-38.8-2.5-57.1-10.9c-4.9-2.3-9.7-5.3-13.7-8.9c-9.4-8.5-9.5-20.2-0.2-28.9
		c11.1-10.5,25.5-14.1,39.9-17c0.9-0.2,2.4,1.4,3.2,2.4c6.2,8.3,12.3,16.8,18.5,25.1c5.7,7.6,14.4,7.7,20.2,0.1
		c6.4-8.4,12.6-16.9,18.7-25.5c1.3-1.8,2.4-2.4,4.7-1.9c11.7,2.4,23.1,5.6,33,12.5c2.9,2,5.6,4.5,7.8,7.2c6.1,7.4,5.7,16.5-0.8,23.9
		c-7.3,8.4-17.3,12.4-27.5,15.5C175,271.2,159.5,272.6,143.2,273z"/>
</g>
</svg>
