<?xml version="1.0" encoding="utf-8"?>
<!-- Generator: Adobe Illustrator 25.2.1, SVG Export Plug-In . SVG Version: 6.00 Build 0)  -->
<svg version="1.1" id="Layer_1" xmlns="http://www.w3.org/2000/svg" xmlns:xlink="http://www.w3.org/1999/xlink" x="0px" y="0px"
	width="24px"
 height="24px"   viewBox="0 0 288 288" style="enable-background:new 0 0 288 288;" xml:space="preserve">
<g>
	<g>
		<path d="M215.9,190.4c0-6.4,0-12.3,0-18.1c-0.1-9.1-4.7-13.7-13.9-13.7c-38.6,0-77.2,0-115.8,0c-9.5,0-14,4.5-14.1,13.9
			c0,5.6-0.1,11.1-0.1,16.7c0,0.2-0.2,0.5-0.5,1.2c-4.3,0-8.7,0-13.1,0c-8.3,0-16.6,0-24.9,0c-6.4,0-9-2.6-9-9.2
			c0-38.9,0-77.7,0-116.6c0-7.1,2.5-9.6,9.5-9.6c54.6,0,109.3,0,163.9,0c18.8,0,37.5,0,56.3,0c6.7,0,9.3,2.6,9.3,9.4
			c0,39,0,78,0,117c0,6.3-2.6,9-8.8,9C242,190.4,229.2,190.4,215.9,190.4z M120.2,131.1c0.4-0.1,0.7-0.2,0.9-0.2c4.5,0,9,0,13.4,0
			c9.3,0,9.2,0,12.7,8.5c0.5,1.2,1.6,3.1,2.5,3.1c4.7,0.3,9.4,0.1,14.4,0.1c-0.5-1.7-0.8-2.9-1.2-4c-7-19.5-14.1-38.9-21.1-58.4
			c-3.4-9.5-3.4-9.4-13.7-9.5c-2.7,0-4,0.7-5,3.4c-4.8,13.7-9.8,27.3-14.7,40.9c-3.2,9-6.5,18-9.8,27.4c5.9,0,11.6,1.1,16.5-0.5
			c2.3-0.7,3-6.5,4.5-9.9C119.7,131.8,119.9,131.6,120.2,131.1z M175.7,70.8c1,1.8,1.5,3,2.2,4.1c5.6,9.1,11.1,18.3,16.8,27.4
			c1.5,2.3,1.6,4.1,0.1,6.5c-6.4,10.2-12.7,20.5-18.9,30.8c-0.5,0.8-0.9,1.8-1.5,3.1c5,0,9.3-0.3,13.6,0.1c3.7,0.3,5.6-1.2,7.3-4.3
			c3.2-5.9,6.9-11.6,10.6-17.7c4,6.7,7.7,12.9,11.4,19c0.7,1.1,1.7,2.7,2.7,2.7c5.7,0.3,11.4,0.1,17.7,0.1
			c-7.2-11.9-13.9-23-20.8-34c-1.5-2.4-1.4-3.9,0.1-6.2c5.9-9.4,11.6-19,17.4-28.5c0.5-0.8,0.9-1.8,1.5-3.2
			c-5.4,0-10.3-0.2-15.1,0.1c-1.7,0.1-3.8,1.3-4.7,2.7c-3.5,5.1-6.5,10.5-10.1,16.3c-3.6-5.9-6.7-11.2-10-16.5
			c-0.7-1-1.8-2.5-2.8-2.5C187.5,70.7,182,70.8,175.7,70.8z M80.1,142.5c0-18.6,0-37,0-55.8c8.2,0,16,0,24.1,0c0-4.2-0.2-8,0.1-11.8
			c0.2-3.3-1-4.1-4.1-4.1c-18.6,0.1-37.2,0-55.8,0.1c-1.3,0-2.6,0.2-3.9,0.2c0,5.5,0,10.5,0,16c8.1,0,15.9,0,24.1,0
			c0,18.7,0,37,0,55.4C69.8,142.5,74.7,142.5,80.1,142.5z"/>
		<path d="M137.9,114.4c-4,0-7.6,0-11.6,0c1.8-5.1,3.6-9.9,5.7-15.8C134.1,104.3,135.9,109.2,137.9,114.4z"/>
	</g>
	<g>
		<path d="M132.8,187.9c1.6-0.3,2.9-1.9,5.5-3.7c-2.7-1.9-4.3-3.9-5.6-3.7c-1.5,0.2-3.6,2.2-3.8,3.7
			C128.4,186.4,130.2,188.4,132.8,187.9z"/>
		<path d="M164.8,208.6c-1.4,0.1-2.7,2.2-4.1,3.4c1.2,1.3,2.3,3.5,3.7,3.7c1.3,0.2,3-1.6,4.5-2.4c0-0.6,0.1-1.2,0.1-1.9
			C167.6,210.4,166.1,208.5,164.8,208.6z"/>
		<path d="M205,165.3c-19.2,0-38.3,0-57.5,0c-19.6,0-39.1,0-58.7,0c-4.6,0-5.7,1.1-5.7,5.8c0,18.6,0,37.2,0,55.8
			c0,4.8,1.2,6.1,5.9,6.1c38.7,0,77.4,0,116.1,0c4.7,0,5.9-1.2,5.9-6.1c0-18.5,0-36.9,0-55.4C211.2,166.2,210.2,165.3,205,165.3z
			 M132.4,172.4c7-0.1,12.2,4.9,12.3,11.8c0,6.8-5.3,12.1-12.1,12c-6.7-0.1-11.6-5.1-11.7-11.9C120.8,177.4,125.5,172.5,132.4,172.4
			z M122.3,213c14.6-10.6,29-21.1,43.8-31.9c1.7,2.2,3.1,4,4.9,6.3c-14.6,10.6-29.1,21.2-43.8,31.9C125.5,217.2,124,215.3,122.3,213
			z M164.3,224c-6.8-0.1-11.6-5-11.6-12c0-6.9,4.9-11.7,11.9-11.7c6.8,0,11.9,5,11.9,11.8C176.5,219.1,171.4,224,164.3,224z"/>
	</g>
</g>
</svg>
